<mxfile host="app.diagrams.net" agent="Mozilla/5.0 (Windows NT 10.0; Win64; x64) AppleWebKit/537.36 (KHTML, like Gecko) Chrome/131.0.0.0 Safari/537.36 Edg/131.0.0.0" version="27.1.6">
  <diagram name="Page-1" id="FJUjUGfiDIACNQf1eJsg">
    <mxGraphModel dx="1502" dy="379" grid="1" gridSize="10" guides="1" tooltips="1" connect="1" arrows="1" fold="1" page="1" pageScale="1" pageWidth="827" pageHeight="1169" background="none" math="0" shadow="0" adaptiveColors="auto">
      <root>
        <mxCell id="0" />
        <mxCell id="1" parent="0" />
        <mxCell id="a82eVX8khh_YBaa5r9_A-326" value="&lt;span&gt;&lt;font style=&quot;color: rgb(0, 0, 0);&quot;&gt;Services&lt;/font&gt;&lt;/span&gt;" style="shape=table;startSize=30;container=1;collapsible=1;childLayout=tableLayout;fixedRows=1;rowLines=0;fontStyle=1;align=center;resizeLast=1;html=1;labelBackgroundColor=none;fillColor=#A8DADC;strokeColor=#457B9D;fontColor=#1D3557;rounded=1;" parent="1" vertex="1">
          <mxGeometry x="-150" y="440" width="340" height="180" as="geometry" />
        </mxCell>
        <mxCell id="a82eVX8khh_YBaa5r9_A-327" value="" style="shape=tableRow;horizontal=0;startSize=0;swimlaneHead=0;swimlaneBody=0;fillColor=none;collapsible=0;dropTarget=0;points=[[0,0.5],[1,0.5]];portConstraint=eastwest;top=0;left=0;right=0;bottom=1;labelBackgroundColor=none;strokeColor=#457B9D;fontColor=#1D3557;rounded=1;" parent="a82eVX8khh_YBaa5r9_A-326" vertex="1">
          <mxGeometry y="30" width="340" height="30" as="geometry" />
        </mxCell>
        <mxCell id="a82eVX8khh_YBaa5r9_A-328" value="PK" style="shape=partialRectangle;connectable=0;fillColor=none;top=0;left=0;bottom=0;right=0;fontStyle=1;overflow=hidden;whiteSpace=wrap;html=1;labelBackgroundColor=none;strokeColor=#457B9D;fontColor=#1D3557;rounded=1;" parent="a82eVX8khh_YBaa5r9_A-327" vertex="1">
          <mxGeometry width="79" height="30" as="geometry">
            <mxRectangle width="79" height="30" as="alternateBounds" />
          </mxGeometry>
        </mxCell>
        <mxCell id="a82eVX8khh_YBaa5r9_A-329" value="&lt;span style=&quot;text-align: center; text-wrap-mode: nowrap;&quot;&gt;ServiceID&lt;/span&gt;" style="shape=partialRectangle;connectable=0;fillColor=none;top=0;left=0;bottom=0;right=0;align=left;spacingLeft=6;fontStyle=5;overflow=hidden;whiteSpace=wrap;html=1;labelBackgroundColor=none;strokeColor=#457B9D;fontColor=#1D3557;rounded=1;" parent="a82eVX8khh_YBaa5r9_A-327" vertex="1">
          <mxGeometry x="79" width="101" height="30" as="geometry">
            <mxRectangle width="101" height="30" as="alternateBounds" />
          </mxGeometry>
        </mxCell>
        <mxCell id="a82eVX8khh_YBaa5r9_A-330" value="int" style="shape=partialRectangle;connectable=0;fillColor=none;top=0;left=0;bottom=0;right=0;align=left;spacingLeft=6;fontStyle=5;overflow=hidden;whiteSpace=wrap;html=1;labelBackgroundColor=none;strokeColor=#457B9D;fontColor=#1D3557;rounded=1;" parent="a82eVX8khh_YBaa5r9_A-327" vertex="1">
          <mxGeometry x="180" width="90" height="30" as="geometry">
            <mxRectangle width="90" height="30" as="alternateBounds" />
          </mxGeometry>
        </mxCell>
        <mxCell id="YgSKw44QeQ9h-YTFfs8t-22" value="&lt;span style=&quot;font-weight: 400;&quot;&gt;&lt;font style=&quot;color: light-dark(rgb(226, 226, 224), rgb(255, 255, 255));&quot;&gt;Not Null&lt;/font&gt;&lt;/span&gt;" style="shape=partialRectangle;connectable=0;fillColor=none;top=0;left=0;bottom=0;right=0;align=left;spacingLeft=6;fontStyle=5;overflow=hidden;whiteSpace=wrap;html=1;labelBackgroundColor=none;strokeColor=#457B9D;fontColor=#1D3557;rounded=1;" parent="a82eVX8khh_YBaa5r9_A-327" vertex="1">
          <mxGeometry x="270" width="70" height="30" as="geometry">
            <mxRectangle width="70" height="30" as="alternateBounds" />
          </mxGeometry>
        </mxCell>
        <mxCell id="a82eVX8khh_YBaa5r9_A-335" value="" style="shape=tableRow;horizontal=0;startSize=0;swimlaneHead=0;swimlaneBody=0;fillColor=none;collapsible=0;dropTarget=0;points=[[0,0.5],[1,0.5]];portConstraint=eastwest;top=0;left=0;right=0;bottom=0;labelBackgroundColor=none;strokeColor=#457B9D;fontColor=#1D3557;rounded=1;" parent="a82eVX8khh_YBaa5r9_A-326" vertex="1">
          <mxGeometry y="60" width="340" height="30" as="geometry" />
        </mxCell>
        <mxCell id="a82eVX8khh_YBaa5r9_A-336" value="" style="shape=partialRectangle;connectable=0;fillColor=none;top=0;left=0;bottom=0;right=0;editable=1;overflow=hidden;whiteSpace=wrap;html=1;labelBackgroundColor=none;strokeColor=#457B9D;fontColor=#1D3557;rounded=1;" parent="a82eVX8khh_YBaa5r9_A-335" vertex="1">
          <mxGeometry width="79" height="30" as="geometry">
            <mxRectangle width="79" height="30" as="alternateBounds" />
          </mxGeometry>
        </mxCell>
        <mxCell id="a82eVX8khh_YBaa5r9_A-337" value="&lt;div style=&quot;text-align: center;&quot;&gt;&lt;span style=&quot;background-color: transparent; text-wrap-mode: nowrap;&quot;&gt;Description&lt;/span&gt;&lt;/div&gt;" style="shape=partialRectangle;connectable=0;fillColor=none;top=0;left=0;bottom=0;right=0;align=left;spacingLeft=6;overflow=hidden;whiteSpace=wrap;html=1;labelBackgroundColor=none;strokeColor=#457B9D;fontColor=#1D3557;rounded=1;" parent="a82eVX8khh_YBaa5r9_A-335" vertex="1">
          <mxGeometry x="79" width="101" height="30" as="geometry">
            <mxRectangle width="101" height="30" as="alternateBounds" />
          </mxGeometry>
        </mxCell>
        <mxCell id="a82eVX8khh_YBaa5r9_A-338" value="nvarchar(500)" style="shape=partialRectangle;connectable=0;fillColor=none;top=0;left=0;bottom=0;right=0;align=left;spacingLeft=6;overflow=hidden;whiteSpace=wrap;html=1;labelBackgroundColor=none;strokeColor=#457B9D;fontColor=#1D3557;rounded=1;" parent="a82eVX8khh_YBaa5r9_A-335" vertex="1">
          <mxGeometry x="180" width="90" height="30" as="geometry">
            <mxRectangle width="90" height="30" as="alternateBounds" />
          </mxGeometry>
        </mxCell>
        <mxCell id="YgSKw44QeQ9h-YTFfs8t-24" value="Null" style="shape=partialRectangle;connectable=0;fillColor=none;top=0;left=0;bottom=0;right=0;align=left;spacingLeft=6;overflow=hidden;whiteSpace=wrap;html=1;labelBackgroundColor=none;strokeColor=#457B9D;fontColor=#1D3557;rounded=1;" parent="a82eVX8khh_YBaa5r9_A-335" vertex="1">
          <mxGeometry x="270" width="70" height="30" as="geometry">
            <mxRectangle width="70" height="30" as="alternateBounds" />
          </mxGeometry>
        </mxCell>
        <mxCell id="a82eVX8khh_YBaa5r9_A-339" style="shape=tableRow;horizontal=0;startSize=0;swimlaneHead=0;swimlaneBody=0;fillColor=none;collapsible=0;dropTarget=0;points=[[0,0.5],[1,0.5]];portConstraint=eastwest;top=0;left=0;right=0;bottom=0;labelBackgroundColor=none;strokeColor=#457B9D;fontColor=#1D3557;rounded=1;" parent="a82eVX8khh_YBaa5r9_A-326" vertex="1">
          <mxGeometry y="90" width="340" height="30" as="geometry" />
        </mxCell>
        <mxCell id="a82eVX8khh_YBaa5r9_A-340" style="shape=partialRectangle;connectable=0;fillColor=none;top=0;left=0;bottom=0;right=0;editable=1;overflow=hidden;whiteSpace=wrap;html=1;labelBackgroundColor=none;strokeColor=#457B9D;fontColor=#1D3557;rounded=1;" parent="a82eVX8khh_YBaa5r9_A-339" vertex="1">
          <mxGeometry width="79" height="30" as="geometry">
            <mxRectangle width="79" height="30" as="alternateBounds" />
          </mxGeometry>
        </mxCell>
        <mxCell id="a82eVX8khh_YBaa5r9_A-341" value="Image" style="shape=partialRectangle;connectable=0;fillColor=none;top=0;left=0;bottom=0;right=0;align=left;spacingLeft=6;overflow=hidden;whiteSpace=wrap;html=1;labelBackgroundColor=none;strokeColor=#457B9D;fontColor=#1D3557;rounded=1;" parent="a82eVX8khh_YBaa5r9_A-339" vertex="1">
          <mxGeometry x="79" width="101" height="30" as="geometry">
            <mxRectangle width="101" height="30" as="alternateBounds" />
          </mxGeometry>
        </mxCell>
        <mxCell id="a82eVX8khh_YBaa5r9_A-342" value="nvarchar(200)" style="shape=partialRectangle;connectable=0;fillColor=none;top=0;left=0;bottom=0;right=0;align=left;spacingLeft=6;overflow=hidden;whiteSpace=wrap;html=1;labelBackgroundColor=none;strokeColor=#457B9D;fontColor=#1D3557;rounded=1;" parent="a82eVX8khh_YBaa5r9_A-339" vertex="1">
          <mxGeometry x="180" width="90" height="30" as="geometry">
            <mxRectangle width="90" height="30" as="alternateBounds" />
          </mxGeometry>
        </mxCell>
        <mxCell id="YgSKw44QeQ9h-YTFfs8t-25" value="&lt;span style=&quot;color: rgb(13, 13, 11);&quot;&gt;Null&lt;/span&gt;" style="shape=partialRectangle;connectable=0;fillColor=none;top=0;left=0;bottom=0;right=0;align=left;spacingLeft=6;overflow=hidden;whiteSpace=wrap;html=1;labelBackgroundColor=none;strokeColor=#457B9D;fontColor=#1D3557;rounded=1;" parent="a82eVX8khh_YBaa5r9_A-339" vertex="1">
          <mxGeometry x="270" width="70" height="30" as="geometry">
            <mxRectangle width="70" height="30" as="alternateBounds" />
          </mxGeometry>
        </mxCell>
        <mxCell id="r121lTBld_6SD0tSjvEL-166" style="shape=tableRow;horizontal=0;startSize=0;swimlaneHead=0;swimlaneBody=0;fillColor=none;collapsible=0;dropTarget=0;points=[[0,0.5],[1,0.5]];portConstraint=eastwest;top=0;left=0;right=0;bottom=0;labelBackgroundColor=none;strokeColor=#457B9D;fontColor=#1D3557;rounded=1;" parent="a82eVX8khh_YBaa5r9_A-326" vertex="1">
          <mxGeometry y="120" width="340" height="30" as="geometry" />
        </mxCell>
        <mxCell id="r121lTBld_6SD0tSjvEL-167" value="&lt;span style=&quot;text-align: left;&quot;&gt;Default (DateNow)&lt;/span&gt;" style="shape=partialRectangle;connectable=0;fillColor=none;top=0;left=0;bottom=0;right=0;editable=1;overflow=hidden;whiteSpace=wrap;html=1;labelBackgroundColor=none;strokeColor=#457B9D;fontColor=#1D3557;rounded=1;" parent="r121lTBld_6SD0tSjvEL-166" vertex="1">
          <mxGeometry width="79" height="30" as="geometry">
            <mxRectangle width="79" height="30" as="alternateBounds" />
          </mxGeometry>
        </mxCell>
        <mxCell id="r121lTBld_6SD0tSjvEL-168" value="CreateDate" style="shape=partialRectangle;connectable=0;fillColor=none;top=0;left=0;bottom=0;right=0;align=left;spacingLeft=6;overflow=hidden;whiteSpace=wrap;html=1;labelBackgroundColor=none;strokeColor=#457B9D;fontColor=#1D3557;rounded=1;" parent="r121lTBld_6SD0tSjvEL-166" vertex="1">
          <mxGeometry x="79" width="101" height="30" as="geometry">
            <mxRectangle width="101" height="30" as="alternateBounds" />
          </mxGeometry>
        </mxCell>
        <mxCell id="r121lTBld_6SD0tSjvEL-169" value="datetime" style="shape=partialRectangle;connectable=0;fillColor=none;top=0;left=0;bottom=0;right=0;align=left;spacingLeft=6;overflow=hidden;whiteSpace=wrap;html=1;labelBackgroundColor=none;strokeColor=#457B9D;fontColor=#1D3557;rounded=1;" parent="r121lTBld_6SD0tSjvEL-166" vertex="1">
          <mxGeometry x="180" width="90" height="30" as="geometry">
            <mxRectangle width="90" height="30" as="alternateBounds" />
          </mxGeometry>
        </mxCell>
        <mxCell id="r121lTBld_6SD0tSjvEL-170" value="Not Null" style="shape=partialRectangle;connectable=0;fillColor=none;top=0;left=0;bottom=0;right=0;align=left;spacingLeft=6;overflow=hidden;whiteSpace=wrap;html=1;labelBackgroundColor=none;strokeColor=#457B9D;fontColor=#1D3557;rounded=1;" parent="r121lTBld_6SD0tSjvEL-166" vertex="1">
          <mxGeometry x="270" width="70" height="30" as="geometry">
            <mxRectangle width="70" height="30" as="alternateBounds" />
          </mxGeometry>
        </mxCell>
        <mxCell id="a82eVX8khh_YBaa5r9_A-331" value="" style="shape=tableRow;horizontal=0;startSize=0;swimlaneHead=0;swimlaneBody=0;fillColor=none;collapsible=0;dropTarget=0;points=[[0,0.5],[1,0.5]];portConstraint=eastwest;top=0;left=0;right=0;bottom=0;labelBackgroundColor=none;strokeColor=#457B9D;fontColor=#1D3557;rounded=1;" parent="a82eVX8khh_YBaa5r9_A-326" vertex="1">
          <mxGeometry y="150" width="340" height="30" as="geometry" />
        </mxCell>
        <mxCell id="a82eVX8khh_YBaa5r9_A-332" value="FK" style="shape=partialRectangle;connectable=0;fillColor=none;top=0;left=0;bottom=0;right=0;editable=1;overflow=hidden;whiteSpace=wrap;html=1;labelBackgroundColor=none;strokeColor=#457B9D;fontColor=#1D3557;rounded=1;" parent="a82eVX8khh_YBaa5r9_A-331" vertex="1">
          <mxGeometry width="79" height="30" as="geometry">
            <mxRectangle width="79" height="30" as="alternateBounds" />
          </mxGeometry>
        </mxCell>
        <mxCell id="a82eVX8khh_YBaa5r9_A-333" value="&lt;u&gt;&lt;b&gt;&lt;span style=&quot;text-wrap-mode: nowrap; text-align: center;&quot;&gt;Service&lt;/span&gt;&lt;span style=&quot;color: light-dark(rgb(70, 73, 93), rgb(170, 173, 190)); text-wrap-mode: nowrap; background-color: transparent; text-align: center;&quot;&gt;TypeID&lt;/span&gt;&lt;/b&gt;&lt;/u&gt;" style="shape=partialRectangle;connectable=0;fillColor=none;top=0;left=0;bottom=0;right=0;align=left;spacingLeft=6;overflow=hidden;whiteSpace=wrap;html=1;labelBackgroundColor=none;strokeColor=#457B9D;fontColor=#1D3557;rounded=1;" parent="a82eVX8khh_YBaa5r9_A-331" vertex="1">
          <mxGeometry x="79" width="101" height="30" as="geometry">
            <mxRectangle width="101" height="30" as="alternateBounds" />
          </mxGeometry>
        </mxCell>
        <mxCell id="a82eVX8khh_YBaa5r9_A-334" value="int" style="shape=partialRectangle;connectable=0;fillColor=none;top=0;left=0;bottom=0;right=0;align=left;spacingLeft=6;overflow=hidden;whiteSpace=wrap;html=1;labelBackgroundColor=none;strokeColor=#457B9D;fontColor=#1D3557;rounded=1;" parent="a82eVX8khh_YBaa5r9_A-331" vertex="1">
          <mxGeometry x="180" width="90" height="30" as="geometry">
            <mxRectangle width="90" height="30" as="alternateBounds" />
          </mxGeometry>
        </mxCell>
        <mxCell id="YgSKw44QeQ9h-YTFfs8t-23" value="&lt;span style=&quot;color: rgb(13, 13, 11);&quot;&gt;Not Null&lt;/span&gt;" style="shape=partialRectangle;connectable=0;fillColor=none;top=0;left=0;bottom=0;right=0;align=left;spacingLeft=6;overflow=hidden;whiteSpace=wrap;html=1;labelBackgroundColor=none;strokeColor=#457B9D;fontColor=#1D3557;rounded=1;" parent="a82eVX8khh_YBaa5r9_A-331" vertex="1">
          <mxGeometry x="270" width="70" height="30" as="geometry">
            <mxRectangle width="70" height="30" as="alternateBounds" />
          </mxGeometry>
        </mxCell>
        <mxCell id="uDVQrx54FTQUmoYok5zQ-1" value="Users" style="shape=table;startSize=30;container=1;collapsible=1;childLayout=tableLayout;fixedRows=1;rowLines=0;fontStyle=1;align=center;resizeLast=1;html=1;labelBackgroundColor=none;fillColor=#A8DADC;strokeColor=#457B9D;fontColor=#1D3557;rounded=1;" parent="1" vertex="1">
          <mxGeometry x="460.0000000000001" y="50" width="358.12" height="300" as="geometry">
            <mxRectangle x="1071.88" y="850" width="70" height="30" as="alternateBounds" />
          </mxGeometry>
        </mxCell>
        <mxCell id="uDVQrx54FTQUmoYok5zQ-2" value="" style="shape=tableRow;horizontal=0;startSize=0;swimlaneHead=0;swimlaneBody=0;fillColor=none;collapsible=0;dropTarget=0;points=[[0,0.5],[1,0.5]];portConstraint=eastwest;top=0;left=0;right=0;bottom=1;labelBackgroundColor=none;strokeColor=#457B9D;fontColor=#1D3557;rounded=1;" parent="uDVQrx54FTQUmoYok5zQ-1" vertex="1">
          <mxGeometry y="30" width="358.12" height="30" as="geometry" />
        </mxCell>
        <mxCell id="uDVQrx54FTQUmoYok5zQ-3" value="PK" style="shape=partialRectangle;connectable=0;fillColor=none;top=0;left=0;bottom=0;right=0;fontStyle=1;overflow=hidden;whiteSpace=wrap;html=1;labelBackgroundColor=none;strokeColor=#457B9D;fontColor=#1D3557;rounded=1;" parent="uDVQrx54FTQUmoYok5zQ-2" vertex="1">
          <mxGeometry width="78.12000000000035" height="30" as="geometry">
            <mxRectangle width="78.12000000000035" height="30" as="alternateBounds" />
          </mxGeometry>
        </mxCell>
        <mxCell id="uDVQrx54FTQUmoYok5zQ-4" value="&lt;span style=&quot;text-align: center; text-wrap-mode: nowrap;&quot;&gt;UserID&lt;/span&gt;" style="shape=partialRectangle;connectable=0;fillColor=none;top=0;left=0;bottom=0;right=0;align=left;spacingLeft=6;fontStyle=5;overflow=hidden;whiteSpace=wrap;html=1;labelBackgroundColor=none;strokeColor=#457B9D;fontColor=#1D3557;rounded=1;" parent="uDVQrx54FTQUmoYok5zQ-2" vertex="1">
          <mxGeometry x="78.12000000000035" width="101.87999999999965" height="30" as="geometry">
            <mxRectangle width="101.87999999999965" height="30" as="alternateBounds" />
          </mxGeometry>
        </mxCell>
        <mxCell id="uDVQrx54FTQUmoYok5zQ-5" value="int" style="shape=partialRectangle;connectable=0;fillColor=none;top=0;left=0;bottom=0;right=0;align=left;spacingLeft=6;fontStyle=5;overflow=hidden;whiteSpace=wrap;html=1;labelBackgroundColor=none;strokeColor=#457B9D;fontColor=#1D3557;rounded=1;" parent="uDVQrx54FTQUmoYok5zQ-2" vertex="1">
          <mxGeometry x="180" width="90" height="30" as="geometry">
            <mxRectangle width="90" height="30" as="alternateBounds" />
          </mxGeometry>
        </mxCell>
        <mxCell id="YgSKw44QeQ9h-YTFfs8t-11" value="&lt;span style=&quot;color: rgb(13, 13, 11); font-weight: 400;&quot;&gt;Not Null&lt;/span&gt;" style="shape=partialRectangle;connectable=0;fillColor=none;top=0;left=0;bottom=0;right=0;align=left;spacingLeft=6;fontStyle=5;overflow=hidden;whiteSpace=wrap;html=1;labelBackgroundColor=none;strokeColor=#457B9D;fontColor=#1D3557;rounded=1;" parent="uDVQrx54FTQUmoYok5zQ-2" vertex="1">
          <mxGeometry x="270" width="88.12" height="30" as="geometry">
            <mxRectangle width="88.12" height="30" as="alternateBounds" />
          </mxGeometry>
        </mxCell>
        <mxCell id="uDVQrx54FTQUmoYok5zQ-6" style="shape=tableRow;horizontal=0;startSize=0;swimlaneHead=0;swimlaneBody=0;fillColor=none;collapsible=0;dropTarget=0;points=[[0,0.5],[1,0.5]];portConstraint=eastwest;top=0;left=0;right=0;bottom=0;labelBackgroundColor=none;strokeColor=#457B9D;fontColor=#1D3557;rounded=1;" parent="uDVQrx54FTQUmoYok5zQ-1" vertex="1">
          <mxGeometry y="60" width="358.12" height="30" as="geometry" />
        </mxCell>
        <mxCell id="uDVQrx54FTQUmoYok5zQ-7" value="&lt;span style=&quot;text-align: left;&quot;&gt;Uniqe&lt;/span&gt;" style="shape=partialRectangle;connectable=0;fillColor=none;top=0;left=0;bottom=0;right=0;editable=1;overflow=hidden;whiteSpace=wrap;html=1;labelBackgroundColor=none;strokeColor=#457B9D;fontColor=#1D3557;rounded=1;" parent="uDVQrx54FTQUmoYok5zQ-6" vertex="1">
          <mxGeometry width="78.12000000000035" height="30" as="geometry">
            <mxRectangle width="78.12000000000035" height="30" as="alternateBounds" />
          </mxGeometry>
        </mxCell>
        <mxCell id="uDVQrx54FTQUmoYok5zQ-8" value="UserName" style="shape=partialRectangle;connectable=0;fillColor=none;top=0;left=0;bottom=0;right=0;align=left;spacingLeft=6;overflow=hidden;whiteSpace=wrap;html=1;labelBackgroundColor=none;strokeColor=#457B9D;fontColor=#1D3557;rounded=1;" parent="uDVQrx54FTQUmoYok5zQ-6" vertex="1">
          <mxGeometry x="78.12000000000035" width="101.87999999999965" height="30" as="geometry">
            <mxRectangle width="101.87999999999965" height="30" as="alternateBounds" />
          </mxGeometry>
        </mxCell>
        <mxCell id="uDVQrx54FTQUmoYok5zQ-9" value="nvarchar(50)" style="shape=partialRectangle;connectable=0;fillColor=none;top=0;left=0;bottom=0;right=0;align=left;spacingLeft=6;overflow=hidden;whiteSpace=wrap;html=1;labelBackgroundColor=none;strokeColor=#457B9D;fontColor=#1D3557;rounded=1;" parent="uDVQrx54FTQUmoYok5zQ-6" vertex="1">
          <mxGeometry x="180" width="90" height="30" as="geometry">
            <mxRectangle width="90" height="30" as="alternateBounds" />
          </mxGeometry>
        </mxCell>
        <mxCell id="YgSKw44QeQ9h-YTFfs8t-12" value="&lt;span style=&quot;color: rgb(13, 13, 11);&quot;&gt;Not Null&lt;/span&gt;" style="shape=partialRectangle;connectable=0;fillColor=none;top=0;left=0;bottom=0;right=0;align=left;spacingLeft=6;overflow=hidden;whiteSpace=wrap;html=1;labelBackgroundColor=none;strokeColor=#457B9D;fontColor=#1D3557;rounded=1;" parent="uDVQrx54FTQUmoYok5zQ-6" vertex="1">
          <mxGeometry x="270" width="88.12" height="30" as="geometry">
            <mxRectangle width="88.12" height="30" as="alternateBounds" />
          </mxGeometry>
        </mxCell>
        <mxCell id="uDVQrx54FTQUmoYok5zQ-10" style="shape=tableRow;horizontal=0;startSize=0;swimlaneHead=0;swimlaneBody=0;fillColor=none;collapsible=0;dropTarget=0;points=[[0,0.5],[1,0.5]];portConstraint=eastwest;top=0;left=0;right=0;bottom=0;labelBackgroundColor=none;strokeColor=#457B9D;fontColor=#1D3557;rounded=1;" parent="uDVQrx54FTQUmoYok5zQ-1" vertex="1">
          <mxGeometry y="90" width="358.12" height="30" as="geometry" />
        </mxCell>
        <mxCell id="uDVQrx54FTQUmoYok5zQ-11" style="shape=partialRectangle;connectable=0;fillColor=none;top=0;left=0;bottom=0;right=0;editable=1;overflow=hidden;whiteSpace=wrap;html=1;labelBackgroundColor=none;strokeColor=#457B9D;fontColor=#1D3557;rounded=1;" parent="uDVQrx54FTQUmoYok5zQ-10" vertex="1">
          <mxGeometry width="78.12000000000035" height="30" as="geometry">
            <mxRectangle width="78.12000000000035" height="30" as="alternateBounds" />
          </mxGeometry>
        </mxCell>
        <mxCell id="uDVQrx54FTQUmoYok5zQ-12" value="Password" style="shape=partialRectangle;connectable=0;fillColor=none;top=0;left=0;bottom=0;right=0;align=left;spacingLeft=6;overflow=hidden;whiteSpace=wrap;html=1;labelBackgroundColor=none;strokeColor=#457B9D;fontColor=#1D3557;rounded=1;" parent="uDVQrx54FTQUmoYok5zQ-10" vertex="1">
          <mxGeometry x="78.12000000000035" width="101.87999999999965" height="30" as="geometry">
            <mxRectangle width="101.87999999999965" height="30" as="alternateBounds" />
          </mxGeometry>
        </mxCell>
        <mxCell id="uDVQrx54FTQUmoYok5zQ-13" value="nvarchar(50)" style="shape=partialRectangle;connectable=0;fillColor=none;top=0;left=0;bottom=0;right=0;align=left;spacingLeft=6;overflow=hidden;whiteSpace=wrap;html=1;labelBackgroundColor=none;strokeColor=#457B9D;fontColor=#1D3557;rounded=1;" parent="uDVQrx54FTQUmoYok5zQ-10" vertex="1">
          <mxGeometry x="180" width="90" height="30" as="geometry">
            <mxRectangle width="90" height="30" as="alternateBounds" />
          </mxGeometry>
        </mxCell>
        <mxCell id="YgSKw44QeQ9h-YTFfs8t-13" value="&lt;span style=&quot;color: rgb(13, 13, 11);&quot;&gt;Not Null&lt;/span&gt;" style="shape=partialRectangle;connectable=0;fillColor=none;top=0;left=0;bottom=0;right=0;align=left;spacingLeft=6;overflow=hidden;whiteSpace=wrap;html=1;labelBackgroundColor=none;strokeColor=#457B9D;fontColor=#1D3557;rounded=1;" parent="uDVQrx54FTQUmoYok5zQ-10" vertex="1">
          <mxGeometry x="270" width="88.12" height="30" as="geometry">
            <mxRectangle width="88.12" height="30" as="alternateBounds" />
          </mxGeometry>
        </mxCell>
        <mxCell id="r121lTBld_6SD0tSjvEL-11" style="shape=tableRow;horizontal=0;startSize=0;swimlaneHead=0;swimlaneBody=0;fillColor=none;collapsible=0;dropTarget=0;points=[[0,0.5],[1,0.5]];portConstraint=eastwest;top=0;left=0;right=0;bottom=0;labelBackgroundColor=none;strokeColor=#457B9D;fontColor=#1D3557;rounded=1;" parent="uDVQrx54FTQUmoYok5zQ-1" vertex="1">
          <mxGeometry y="120" width="358.12" height="30" as="geometry" />
        </mxCell>
        <mxCell id="r121lTBld_6SD0tSjvEL-12" style="shape=partialRectangle;connectable=0;fillColor=none;top=0;left=0;bottom=0;right=0;editable=1;overflow=hidden;whiteSpace=wrap;html=1;labelBackgroundColor=none;strokeColor=#457B9D;fontColor=#1D3557;rounded=1;" parent="r121lTBld_6SD0tSjvEL-11" vertex="1">
          <mxGeometry width="78.12000000000035" height="30" as="geometry">
            <mxRectangle width="78.12000000000035" height="30" as="alternateBounds" />
          </mxGeometry>
        </mxCell>
        <mxCell id="r121lTBld_6SD0tSjvEL-13" value="Email" style="shape=partialRectangle;connectable=0;fillColor=none;top=0;left=0;bottom=0;right=0;align=left;spacingLeft=6;overflow=hidden;whiteSpace=wrap;html=1;labelBackgroundColor=none;strokeColor=#457B9D;fontColor=#1D3557;rounded=1;" parent="r121lTBld_6SD0tSjvEL-11" vertex="1">
          <mxGeometry x="78.12000000000035" width="101.87999999999965" height="30" as="geometry">
            <mxRectangle width="101.87999999999965" height="30" as="alternateBounds" />
          </mxGeometry>
        </mxCell>
        <mxCell id="r121lTBld_6SD0tSjvEL-14" value="nvarchar(50)" style="shape=partialRectangle;connectable=0;fillColor=none;top=0;left=0;bottom=0;right=0;align=left;spacingLeft=6;overflow=hidden;whiteSpace=wrap;html=1;labelBackgroundColor=none;strokeColor=#457B9D;fontColor=#1D3557;rounded=1;" parent="r121lTBld_6SD0tSjvEL-11" vertex="1">
          <mxGeometry x="180" width="90" height="30" as="geometry">
            <mxRectangle width="90" height="30" as="alternateBounds" />
          </mxGeometry>
        </mxCell>
        <mxCell id="r121lTBld_6SD0tSjvEL-15" value="Null" style="shape=partialRectangle;connectable=0;fillColor=none;top=0;left=0;bottom=0;right=0;align=left;spacingLeft=6;overflow=hidden;whiteSpace=wrap;html=1;labelBackgroundColor=none;strokeColor=#457B9D;fontColor=#1D3557;rounded=1;" parent="r121lTBld_6SD0tSjvEL-11" vertex="1">
          <mxGeometry x="270" width="88.12" height="30" as="geometry">
            <mxRectangle width="88.12" height="30" as="alternateBounds" />
          </mxGeometry>
        </mxCell>
        <mxCell id="r121lTBld_6SD0tSjvEL-6" style="shape=tableRow;horizontal=0;startSize=0;swimlaneHead=0;swimlaneBody=0;fillColor=none;collapsible=0;dropTarget=0;points=[[0,0.5],[1,0.5]];portConstraint=eastwest;top=0;left=0;right=0;bottom=0;labelBackgroundColor=none;strokeColor=#457B9D;fontColor=#1D3557;rounded=1;" parent="uDVQrx54FTQUmoYok5zQ-1" vertex="1">
          <mxGeometry y="150" width="358.12" height="30" as="geometry" />
        </mxCell>
        <mxCell id="r121lTBld_6SD0tSjvEL-7" style="shape=partialRectangle;connectable=0;fillColor=none;top=0;left=0;bottom=0;right=0;editable=1;overflow=hidden;whiteSpace=wrap;html=1;labelBackgroundColor=none;strokeColor=#457B9D;fontColor=#1D3557;rounded=1;" parent="r121lTBld_6SD0tSjvEL-6" vertex="1">
          <mxGeometry width="78.12000000000035" height="30" as="geometry">
            <mxRectangle width="78.12000000000035" height="30" as="alternateBounds" />
          </mxGeometry>
        </mxCell>
        <mxCell id="r121lTBld_6SD0tSjvEL-8" value="Phone" style="shape=partialRectangle;connectable=0;fillColor=none;top=0;left=0;bottom=0;right=0;align=left;spacingLeft=6;overflow=hidden;whiteSpace=wrap;html=1;labelBackgroundColor=none;strokeColor=#457B9D;fontColor=#1D3557;rounded=1;" parent="r121lTBld_6SD0tSjvEL-6" vertex="1">
          <mxGeometry x="78.12000000000035" width="101.87999999999965" height="30" as="geometry">
            <mxRectangle width="101.87999999999965" height="30" as="alternateBounds" />
          </mxGeometry>
        </mxCell>
        <mxCell id="r121lTBld_6SD0tSjvEL-9" value="nvarchar(50)" style="shape=partialRectangle;connectable=0;fillColor=none;top=0;left=0;bottom=0;right=0;align=left;spacingLeft=6;overflow=hidden;whiteSpace=wrap;html=1;labelBackgroundColor=none;strokeColor=#457B9D;fontColor=#1D3557;rounded=1;" parent="r121lTBld_6SD0tSjvEL-6" vertex="1">
          <mxGeometry x="180" width="90" height="30" as="geometry">
            <mxRectangle width="90" height="30" as="alternateBounds" />
          </mxGeometry>
        </mxCell>
        <mxCell id="r121lTBld_6SD0tSjvEL-10" value="Null" style="shape=partialRectangle;connectable=0;fillColor=none;top=0;left=0;bottom=0;right=0;align=left;spacingLeft=6;overflow=hidden;whiteSpace=wrap;html=1;labelBackgroundColor=none;strokeColor=#457B9D;fontColor=#1D3557;rounded=1;" parent="r121lTBld_6SD0tSjvEL-6" vertex="1">
          <mxGeometry x="270" width="88.12" height="30" as="geometry">
            <mxRectangle width="88.12" height="30" as="alternateBounds" />
          </mxGeometry>
        </mxCell>
        <mxCell id="uDVQrx54FTQUmoYok5zQ-14" value="" style="shape=tableRow;horizontal=0;startSize=0;swimlaneHead=0;swimlaneBody=0;fillColor=none;collapsible=0;dropTarget=0;points=[[0,0.5],[1,0.5]];portConstraint=eastwest;top=0;left=0;right=0;bottom=0;labelBackgroundColor=none;strokeColor=#457B9D;fontColor=#1D3557;rounded=1;" parent="uDVQrx54FTQUmoYok5zQ-1" vertex="1">
          <mxGeometry y="180" width="358.12" height="30" as="geometry" />
        </mxCell>
        <mxCell id="uDVQrx54FTQUmoYok5zQ-15" value="&lt;span style=&quot;text-align: left;&quot;&gt;Default (1)&lt;/span&gt;" style="shape=partialRectangle;connectable=0;fillColor=none;top=0;left=0;bottom=0;right=0;editable=1;overflow=hidden;whiteSpace=wrap;html=1;labelBackgroundColor=none;strokeColor=#457B9D;fontColor=#1D3557;rounded=1;" parent="uDVQrx54FTQUmoYok5zQ-14" vertex="1">
          <mxGeometry width="78.12000000000035" height="30" as="geometry">
            <mxRectangle width="78.12000000000035" height="30" as="alternateBounds" />
          </mxGeometry>
        </mxCell>
        <mxCell id="uDVQrx54FTQUmoYok5zQ-16" value="IsActive" style="shape=partialRectangle;connectable=0;fillColor=none;top=0;left=0;bottom=0;right=0;align=left;spacingLeft=6;overflow=hidden;whiteSpace=wrap;html=1;labelBackgroundColor=none;strokeColor=#457B9D;fontColor=#1D3557;rounded=1;" parent="uDVQrx54FTQUmoYok5zQ-14" vertex="1">
          <mxGeometry x="78.12000000000035" width="101.87999999999965" height="30" as="geometry">
            <mxRectangle width="101.87999999999965" height="30" as="alternateBounds" />
          </mxGeometry>
        </mxCell>
        <mxCell id="uDVQrx54FTQUmoYok5zQ-17" value="bit" style="shape=partialRectangle;connectable=0;fillColor=none;top=0;left=0;bottom=0;right=0;align=left;spacingLeft=6;overflow=hidden;whiteSpace=wrap;html=1;labelBackgroundColor=none;strokeColor=#457B9D;fontColor=#1D3557;rounded=1;" parent="uDVQrx54FTQUmoYok5zQ-14" vertex="1">
          <mxGeometry x="180" width="90" height="30" as="geometry">
            <mxRectangle width="90" height="30" as="alternateBounds" />
          </mxGeometry>
        </mxCell>
        <mxCell id="YgSKw44QeQ9h-YTFfs8t-14" value="&lt;span style=&quot;color: rgb(13, 13, 11);&quot;&gt;Not Null&lt;/span&gt;" style="shape=partialRectangle;connectable=0;fillColor=none;top=0;left=0;bottom=0;right=0;align=left;spacingLeft=6;overflow=hidden;whiteSpace=wrap;html=1;labelBackgroundColor=none;strokeColor=#457B9D;fontColor=#1D3557;rounded=1;" parent="uDVQrx54FTQUmoYok5zQ-14" vertex="1">
          <mxGeometry x="270" width="88.12" height="30" as="geometry">
            <mxRectangle width="88.12" height="30" as="alternateBounds" />
          </mxGeometry>
        </mxCell>
        <mxCell id="r121lTBld_6SD0tSjvEL-63" style="shape=tableRow;horizontal=0;startSize=0;swimlaneHead=0;swimlaneBody=0;fillColor=none;collapsible=0;dropTarget=0;points=[[0,0.5],[1,0.5]];portConstraint=eastwest;top=0;left=0;right=0;bottom=0;labelBackgroundColor=none;strokeColor=#457B9D;fontColor=#1D3557;rounded=1;" parent="uDVQrx54FTQUmoYok5zQ-1" vertex="1">
          <mxGeometry y="210" width="358.12" height="30" as="geometry" />
        </mxCell>
        <mxCell id="r121lTBld_6SD0tSjvEL-64" style="shape=partialRectangle;connectable=0;fillColor=none;top=0;left=0;bottom=0;right=0;editable=1;overflow=hidden;whiteSpace=wrap;html=1;labelBackgroundColor=none;strokeColor=#457B9D;fontColor=#1D3557;rounded=1;" parent="r121lTBld_6SD0tSjvEL-63" vertex="1">
          <mxGeometry width="78.12000000000035" height="30" as="geometry">
            <mxRectangle width="78.12000000000035" height="30" as="alternateBounds" />
          </mxGeometry>
        </mxCell>
        <mxCell id="r121lTBld_6SD0tSjvEL-65" value="Permissions" style="shape=partialRectangle;connectable=0;fillColor=none;top=0;left=0;bottom=0;right=0;align=left;spacingLeft=6;overflow=hidden;whiteSpace=wrap;html=1;labelBackgroundColor=none;strokeColor=#457B9D;fontColor=#1D3557;rounded=1;" parent="r121lTBld_6SD0tSjvEL-63" vertex="1">
          <mxGeometry x="78.12000000000035" width="101.87999999999965" height="30" as="geometry">
            <mxRectangle width="101.87999999999965" height="30" as="alternateBounds" />
          </mxGeometry>
        </mxCell>
        <mxCell id="r121lTBld_6SD0tSjvEL-66" value="int" style="shape=partialRectangle;connectable=0;fillColor=none;top=0;left=0;bottom=0;right=0;align=left;spacingLeft=6;overflow=hidden;whiteSpace=wrap;html=1;labelBackgroundColor=none;strokeColor=#457B9D;fontColor=#1D3557;rounded=1;" parent="r121lTBld_6SD0tSjvEL-63" vertex="1">
          <mxGeometry x="180" width="90" height="30" as="geometry">
            <mxRectangle width="90" height="30" as="alternateBounds" />
          </mxGeometry>
        </mxCell>
        <mxCell id="r121lTBld_6SD0tSjvEL-67" value="Null" style="shape=partialRectangle;connectable=0;fillColor=none;top=0;left=0;bottom=0;right=0;align=left;spacingLeft=6;overflow=hidden;whiteSpace=wrap;html=1;labelBackgroundColor=none;strokeColor=#457B9D;fontColor=#1D3557;rounded=1;" parent="r121lTBld_6SD0tSjvEL-63" vertex="1">
          <mxGeometry x="270" width="88.12" height="30" as="geometry">
            <mxRectangle width="88.12" height="30" as="alternateBounds" />
          </mxGeometry>
        </mxCell>
        <mxCell id="r121lTBld_6SD0tSjvEL-77" style="shape=tableRow;horizontal=0;startSize=0;swimlaneHead=0;swimlaneBody=0;fillColor=none;collapsible=0;dropTarget=0;points=[[0,0.5],[1,0.5]];portConstraint=eastwest;top=0;left=0;right=0;bottom=0;labelBackgroundColor=none;strokeColor=#457B9D;fontColor=#1D3557;rounded=1;" parent="uDVQrx54FTQUmoYok5zQ-1" vertex="1">
          <mxGeometry y="240" width="358.12" height="30" as="geometry" />
        </mxCell>
        <mxCell id="r121lTBld_6SD0tSjvEL-78" value="&lt;span style=&quot;text-align: left;&quot;&gt;Default (DateNow)&lt;/span&gt;" style="shape=partialRectangle;connectable=0;fillColor=none;top=0;left=0;bottom=0;right=0;editable=1;overflow=hidden;whiteSpace=wrap;html=1;labelBackgroundColor=none;strokeColor=#457B9D;fontColor=#1D3557;rounded=1;" parent="r121lTBld_6SD0tSjvEL-77" vertex="1">
          <mxGeometry width="78.12000000000035" height="30" as="geometry">
            <mxRectangle width="78.12000000000035" height="30" as="alternateBounds" />
          </mxGeometry>
        </mxCell>
        <mxCell id="r121lTBld_6SD0tSjvEL-79" value="CreateDate" style="shape=partialRectangle;connectable=0;fillColor=none;top=0;left=0;bottom=0;right=0;align=left;spacingLeft=6;overflow=hidden;whiteSpace=wrap;html=1;labelBackgroundColor=none;strokeColor=#457B9D;fontColor=#1D3557;rounded=1;" parent="r121lTBld_6SD0tSjvEL-77" vertex="1">
          <mxGeometry x="78.12000000000035" width="101.87999999999965" height="30" as="geometry">
            <mxRectangle width="101.87999999999965" height="30" as="alternateBounds" />
          </mxGeometry>
        </mxCell>
        <mxCell id="r121lTBld_6SD0tSjvEL-80" value="datetime" style="shape=partialRectangle;connectable=0;fillColor=none;top=0;left=0;bottom=0;right=0;align=left;spacingLeft=6;overflow=hidden;whiteSpace=wrap;html=1;labelBackgroundColor=none;strokeColor=#457B9D;fontColor=#1D3557;rounded=1;" parent="r121lTBld_6SD0tSjvEL-77" vertex="1">
          <mxGeometry x="180" width="90" height="30" as="geometry">
            <mxRectangle width="90" height="30" as="alternateBounds" />
          </mxGeometry>
        </mxCell>
        <mxCell id="r121lTBld_6SD0tSjvEL-81" value="Not Null" style="shape=partialRectangle;connectable=0;fillColor=none;top=0;left=0;bottom=0;right=0;align=left;spacingLeft=6;overflow=hidden;whiteSpace=wrap;html=1;labelBackgroundColor=none;strokeColor=#457B9D;fontColor=#1D3557;rounded=1;" parent="r121lTBld_6SD0tSjvEL-77" vertex="1">
          <mxGeometry x="270" width="88.12" height="30" as="geometry">
            <mxRectangle width="88.12" height="30" as="alternateBounds" />
          </mxGeometry>
        </mxCell>
        <mxCell id="r121lTBld_6SD0tSjvEL-58" style="shape=tableRow;horizontal=0;startSize=0;swimlaneHead=0;swimlaneBody=0;fillColor=none;collapsible=0;dropTarget=0;points=[[0,0.5],[1,0.5]];portConstraint=eastwest;top=0;left=0;right=0;bottom=0;labelBackgroundColor=none;strokeColor=#457B9D;fontColor=#1D3557;rounded=1;" parent="uDVQrx54FTQUmoYok5zQ-1" vertex="1">
          <mxGeometry y="270" width="358.12" height="30" as="geometry" />
        </mxCell>
        <mxCell id="r121lTBld_6SD0tSjvEL-59" value="FK" style="shape=partialRectangle;connectable=0;fillColor=none;top=0;left=0;bottom=0;right=0;editable=1;overflow=hidden;whiteSpace=wrap;html=1;labelBackgroundColor=none;strokeColor=#457B9D;fontColor=#1D3557;rounded=1;" parent="r121lTBld_6SD0tSjvEL-58" vertex="1">
          <mxGeometry width="78.12000000000035" height="30" as="geometry">
            <mxRectangle width="78.12000000000035" height="30" as="alternateBounds" />
          </mxGeometry>
        </mxCell>
        <mxCell id="r121lTBld_6SD0tSjvEL-60" value="&lt;span style=&quot;font-weight: 700; text-align: center; text-wrap-mode: nowrap; text-decoration-line: underline;&quot;&gt;UserTypeID&lt;/span&gt;" style="shape=partialRectangle;connectable=0;fillColor=none;top=0;left=0;bottom=0;right=0;align=left;spacingLeft=6;overflow=hidden;whiteSpace=wrap;html=1;labelBackgroundColor=none;strokeColor=#457B9D;fontColor=#1D3557;rounded=1;" parent="r121lTBld_6SD0tSjvEL-58" vertex="1">
          <mxGeometry x="78.12000000000035" width="101.87999999999965" height="30" as="geometry">
            <mxRectangle width="101.87999999999965" height="30" as="alternateBounds" />
          </mxGeometry>
        </mxCell>
        <mxCell id="r121lTBld_6SD0tSjvEL-61" value="int" style="shape=partialRectangle;connectable=0;fillColor=none;top=0;left=0;bottom=0;right=0;align=left;spacingLeft=6;overflow=hidden;whiteSpace=wrap;html=1;labelBackgroundColor=none;strokeColor=#457B9D;fontColor=#1D3557;rounded=1;" parent="r121lTBld_6SD0tSjvEL-58" vertex="1">
          <mxGeometry x="180" width="90" height="30" as="geometry">
            <mxRectangle width="90" height="30" as="alternateBounds" />
          </mxGeometry>
        </mxCell>
        <mxCell id="r121lTBld_6SD0tSjvEL-62" value="Not Null" style="shape=partialRectangle;connectable=0;fillColor=none;top=0;left=0;bottom=0;right=0;align=left;spacingLeft=6;overflow=hidden;whiteSpace=wrap;html=1;labelBackgroundColor=none;strokeColor=#457B9D;fontColor=#1D3557;rounded=1;" parent="r121lTBld_6SD0tSjvEL-58" vertex="1">
          <mxGeometry x="270" width="88.12" height="30" as="geometry">
            <mxRectangle width="88.12" height="30" as="alternateBounds" />
          </mxGeometry>
        </mxCell>
        <mxCell id="uDVQrx54FTQUmoYok5zQ-79" value="&lt;span style=&quot;text-align: left; text-wrap-mode: wrap;&quot;&gt;Reservations&lt;/span&gt;" style="shape=table;startSize=30;container=1;collapsible=1;childLayout=tableLayout;fixedRows=1;rowLines=0;fontStyle=1;align=center;resizeLast=1;html=1;labelBackgroundColor=none;fillColor=#A8DADC;strokeColor=#457B9D;fontColor=#1D3557;rounded=1;" parent="1" vertex="1">
          <mxGeometry x="-150" y="50" width="340" height="210" as="geometry" />
        </mxCell>
        <mxCell id="uDVQrx54FTQUmoYok5zQ-80" value="" style="shape=tableRow;horizontal=0;startSize=0;swimlaneHead=0;swimlaneBody=0;fillColor=none;collapsible=0;dropTarget=0;points=[[0,0.5],[1,0.5]];portConstraint=eastwest;top=0;left=0;right=0;bottom=1;labelBackgroundColor=none;strokeColor=#457B9D;fontColor=#1D3557;rounded=1;" parent="uDVQrx54FTQUmoYok5zQ-79" vertex="1">
          <mxGeometry y="30" width="340" height="30" as="geometry" />
        </mxCell>
        <mxCell id="uDVQrx54FTQUmoYok5zQ-81" value="PK" style="shape=partialRectangle;connectable=0;fillColor=none;top=0;left=0;bottom=0;right=0;fontStyle=1;overflow=hidden;whiteSpace=wrap;html=1;labelBackgroundColor=none;strokeColor=#457B9D;fontColor=#1D3557;rounded=1;" parent="uDVQrx54FTQUmoYok5zQ-80" vertex="1">
          <mxGeometry width="70" height="30" as="geometry">
            <mxRectangle width="70" height="30" as="alternateBounds" />
          </mxGeometry>
        </mxCell>
        <mxCell id="uDVQrx54FTQUmoYok5zQ-82" value="ReservationID" style="shape=partialRectangle;connectable=0;fillColor=none;top=0;left=0;bottom=0;right=0;align=left;spacingLeft=6;fontStyle=5;overflow=hidden;whiteSpace=wrap;html=1;labelBackgroundColor=none;strokeColor=#457B9D;fontColor=#1D3557;rounded=1;" parent="uDVQrx54FTQUmoYok5zQ-80" vertex="1">
          <mxGeometry x="70" width="110" height="30" as="geometry">
            <mxRectangle width="110" height="30" as="alternateBounds" />
          </mxGeometry>
        </mxCell>
        <mxCell id="uDVQrx54FTQUmoYok5zQ-83" value="int" style="shape=partialRectangle;connectable=0;fillColor=none;top=0;left=0;bottom=0;right=0;align=left;spacingLeft=6;fontStyle=5;overflow=hidden;whiteSpace=wrap;html=1;labelBackgroundColor=none;strokeColor=#457B9D;fontColor=#1D3557;rounded=1;" parent="uDVQrx54FTQUmoYok5zQ-80" vertex="1">
          <mxGeometry x="180" width="90" height="30" as="geometry">
            <mxRectangle width="90" height="30" as="alternateBounds" />
          </mxGeometry>
        </mxCell>
        <mxCell id="YgSKw44QeQ9h-YTFfs8t-15" value="&lt;span style=&quot;font-weight: 400;&quot;&gt;&lt;font style=&quot;color: light-dark(rgb(226, 226, 224), rgb(237, 237, 224));&quot;&gt;Not Null&lt;/font&gt;&lt;/span&gt;" style="shape=partialRectangle;connectable=0;fillColor=none;top=0;left=0;bottom=0;right=0;align=left;spacingLeft=6;fontStyle=5;overflow=hidden;whiteSpace=wrap;html=1;labelBackgroundColor=none;strokeColor=#457B9D;fontColor=#1D3557;rounded=1;" parent="uDVQrx54FTQUmoYok5zQ-80" vertex="1">
          <mxGeometry x="270" width="70" height="30" as="geometry">
            <mxRectangle width="70" height="30" as="alternateBounds" />
          </mxGeometry>
        </mxCell>
        <mxCell id="uDVQrx54FTQUmoYok5zQ-144" style="shape=tableRow;horizontal=0;startSize=0;swimlaneHead=0;swimlaneBody=0;fillColor=none;collapsible=0;dropTarget=0;points=[[0,0.5],[1,0.5]];portConstraint=eastwest;top=0;left=0;right=0;bottom=0;labelBackgroundColor=none;strokeColor=#457B9D;fontColor=#1D3557;rounded=1;" parent="uDVQrx54FTQUmoYok5zQ-79" vertex="1">
          <mxGeometry y="60" width="340" height="30" as="geometry" />
        </mxCell>
        <mxCell id="uDVQrx54FTQUmoYok5zQ-145" value="&lt;b&gt;FK&lt;/b&gt;" style="shape=partialRectangle;connectable=0;fillColor=none;top=0;left=0;bottom=0;right=0;editable=1;overflow=hidden;whiteSpace=wrap;html=1;labelBackgroundColor=none;strokeColor=#457B9D;fontColor=#1D3557;rounded=1;" parent="uDVQrx54FTQUmoYok5zQ-144" vertex="1">
          <mxGeometry width="70" height="30" as="geometry">
            <mxRectangle width="70" height="30" as="alternateBounds" />
          </mxGeometry>
        </mxCell>
        <mxCell id="uDVQrx54FTQUmoYok5zQ-146" value="&lt;span style=&quot;font-weight: 700; text-align: center; text-wrap-mode: nowrap; text-decoration-line: underline;&quot;&gt;UserID&lt;/span&gt;" style="shape=partialRectangle;connectable=0;fillColor=none;top=0;left=0;bottom=0;right=0;align=left;spacingLeft=6;overflow=hidden;whiteSpace=wrap;html=1;labelBackgroundColor=none;strokeColor=#457B9D;fontColor=#1D3557;rounded=1;" parent="uDVQrx54FTQUmoYok5zQ-144" vertex="1">
          <mxGeometry x="70" width="110" height="30" as="geometry">
            <mxRectangle width="110" height="30" as="alternateBounds" />
          </mxGeometry>
        </mxCell>
        <mxCell id="uDVQrx54FTQUmoYok5zQ-147" value="int" style="shape=partialRectangle;connectable=0;fillColor=none;top=0;left=0;bottom=0;right=0;align=left;spacingLeft=6;overflow=hidden;whiteSpace=wrap;html=1;labelBackgroundColor=none;strokeColor=#457B9D;fontColor=#1D3557;rounded=1;" parent="uDVQrx54FTQUmoYok5zQ-144" vertex="1">
          <mxGeometry x="180" width="90" height="30" as="geometry">
            <mxRectangle width="90" height="30" as="alternateBounds" />
          </mxGeometry>
        </mxCell>
        <mxCell id="YgSKw44QeQ9h-YTFfs8t-16" value="&lt;span style=&quot;color: rgb(13, 13, 11);&quot;&gt;Not Null&lt;/span&gt;" style="shape=partialRectangle;connectable=0;fillColor=none;top=0;left=0;bottom=0;right=0;align=left;spacingLeft=6;overflow=hidden;whiteSpace=wrap;html=1;labelBackgroundColor=none;strokeColor=#457B9D;fontColor=#1D3557;rounded=1;" parent="uDVQrx54FTQUmoYok5zQ-144" vertex="1">
          <mxGeometry x="270" width="70" height="30" as="geometry">
            <mxRectangle width="70" height="30" as="alternateBounds" />
          </mxGeometry>
        </mxCell>
        <mxCell id="uDVQrx54FTQUmoYok5zQ-150" style="shape=tableRow;horizontal=0;startSize=0;swimlaneHead=0;swimlaneBody=0;fillColor=none;collapsible=0;dropTarget=0;points=[[0,0.5],[1,0.5]];portConstraint=eastwest;top=0;left=0;right=0;bottom=0;labelBackgroundColor=none;strokeColor=#457B9D;fontColor=#1D3557;rounded=1;" parent="uDVQrx54FTQUmoYok5zQ-79" vertex="1">
          <mxGeometry y="90" width="340" height="30" as="geometry" />
        </mxCell>
        <mxCell id="uDVQrx54FTQUmoYok5zQ-151" value="&lt;span style=&quot;text-align: left;&quot;&gt;Default (DateNow)&lt;/span&gt;" style="shape=partialRectangle;connectable=0;fillColor=none;top=0;left=0;bottom=0;right=0;editable=1;overflow=hidden;whiteSpace=wrap;html=1;labelBackgroundColor=none;strokeColor=#457B9D;fontColor=#1D3557;rounded=1;" parent="uDVQrx54FTQUmoYok5zQ-150" vertex="1">
          <mxGeometry width="70" height="30" as="geometry">
            <mxRectangle width="70" height="30" as="alternateBounds" />
          </mxGeometry>
        </mxCell>
        <mxCell id="uDVQrx54FTQUmoYok5zQ-152" value="ReservationDate" style="shape=partialRectangle;connectable=0;fillColor=none;top=0;left=0;bottom=0;right=0;align=left;spacingLeft=6;overflow=hidden;whiteSpace=wrap;html=1;labelBackgroundColor=none;strokeColor=#457B9D;fontColor=#1D3557;rounded=1;" parent="uDVQrx54FTQUmoYok5zQ-150" vertex="1">
          <mxGeometry x="70" width="110" height="30" as="geometry">
            <mxRectangle width="110" height="30" as="alternateBounds" />
          </mxGeometry>
        </mxCell>
        <mxCell id="uDVQrx54FTQUmoYok5zQ-153" value="datetime" style="shape=partialRectangle;connectable=0;fillColor=none;top=0;left=0;bottom=0;right=0;align=left;spacingLeft=6;overflow=hidden;whiteSpace=wrap;html=1;labelBackgroundColor=none;strokeColor=#457B9D;fontColor=#1D3557;rounded=1;" parent="uDVQrx54FTQUmoYok5zQ-150" vertex="1">
          <mxGeometry x="180" width="90" height="30" as="geometry">
            <mxRectangle width="90" height="30" as="alternateBounds" />
          </mxGeometry>
        </mxCell>
        <mxCell id="YgSKw44QeQ9h-YTFfs8t-18" value="&lt;span style=&quot;color: rgb(13, 13, 11);&quot;&gt;Not Null&lt;/span&gt;" style="shape=partialRectangle;connectable=0;fillColor=none;top=0;left=0;bottom=0;right=0;align=left;spacingLeft=6;overflow=hidden;whiteSpace=wrap;html=1;labelBackgroundColor=none;strokeColor=#457B9D;fontColor=#1D3557;rounded=1;" parent="uDVQrx54FTQUmoYok5zQ-150" vertex="1">
          <mxGeometry x="270" width="70" height="30" as="geometry">
            <mxRectangle width="70" height="30" as="alternateBounds" />
          </mxGeometry>
        </mxCell>
        <mxCell id="uDVQrx54FTQUmoYok5zQ-154" style="shape=tableRow;horizontal=0;startSize=0;swimlaneHead=0;swimlaneBody=0;fillColor=none;collapsible=0;dropTarget=0;points=[[0,0.5],[1,0.5]];portConstraint=eastwest;top=0;left=0;right=0;bottom=0;labelBackgroundColor=none;strokeColor=#457B9D;fontColor=#1D3557;rounded=1;" parent="uDVQrx54FTQUmoYok5zQ-79" vertex="1">
          <mxGeometry y="120" width="340" height="30" as="geometry" />
        </mxCell>
        <mxCell id="uDVQrx54FTQUmoYok5zQ-155" value="&lt;span style=&quot;text-align: left;&quot;&gt;Default (1)&lt;/span&gt;" style="shape=partialRectangle;connectable=0;fillColor=none;top=0;left=0;bottom=0;right=0;editable=1;overflow=hidden;whiteSpace=wrap;html=1;labelBackgroundColor=none;strokeColor=#457B9D;fontColor=#1D3557;rounded=1;" parent="uDVQrx54FTQUmoYok5zQ-154" vertex="1">
          <mxGeometry width="70" height="30" as="geometry">
            <mxRectangle width="70" height="30" as="alternateBounds" />
          </mxGeometry>
        </mxCell>
        <mxCell id="uDVQrx54FTQUmoYok5zQ-156" value="ReservationStatus" style="shape=partialRectangle;connectable=0;fillColor=none;top=0;left=0;bottom=0;right=0;align=left;spacingLeft=6;overflow=hidden;whiteSpace=wrap;html=1;labelBackgroundColor=none;strokeColor=#457B9D;fontColor=#1D3557;rounded=1;" parent="uDVQrx54FTQUmoYok5zQ-154" vertex="1">
          <mxGeometry x="70" width="110" height="30" as="geometry">
            <mxRectangle width="110" height="30" as="alternateBounds" />
          </mxGeometry>
        </mxCell>
        <mxCell id="uDVQrx54FTQUmoYok5zQ-157" value="tinyint" style="shape=partialRectangle;connectable=0;fillColor=none;top=0;left=0;bottom=0;right=0;align=left;spacingLeft=6;overflow=hidden;whiteSpace=wrap;html=1;labelBackgroundColor=none;strokeColor=#457B9D;fontColor=#1D3557;rounded=1;" parent="uDVQrx54FTQUmoYok5zQ-154" vertex="1">
          <mxGeometry x="180" width="90" height="30" as="geometry">
            <mxRectangle width="90" height="30" as="alternateBounds" />
          </mxGeometry>
        </mxCell>
        <mxCell id="YgSKw44QeQ9h-YTFfs8t-19" value="&lt;span style=&quot;color: rgb(13, 13, 11);&quot;&gt;Not Null&lt;/span&gt;" style="shape=partialRectangle;connectable=0;fillColor=none;top=0;left=0;bottom=0;right=0;align=left;spacingLeft=6;overflow=hidden;whiteSpace=wrap;html=1;labelBackgroundColor=none;strokeColor=#457B9D;fontColor=#1D3557;rounded=1;" parent="uDVQrx54FTQUmoYok5zQ-154" vertex="1">
          <mxGeometry x="270" width="70" height="30" as="geometry">
            <mxRectangle width="70" height="30" as="alternateBounds" />
          </mxGeometry>
        </mxCell>
        <mxCell id="uDVQrx54FTQUmoYok5zQ-88" value="" style="shape=tableRow;horizontal=0;startSize=0;swimlaneHead=0;swimlaneBody=0;fillColor=none;collapsible=0;dropTarget=0;points=[[0,0.5],[1,0.5]];portConstraint=eastwest;top=0;left=0;right=0;bottom=0;labelBackgroundColor=none;strokeColor=#457B9D;fontColor=#1D3557;rounded=1;" parent="uDVQrx54FTQUmoYok5zQ-79" vertex="1">
          <mxGeometry y="150" width="340" height="30" as="geometry" />
        </mxCell>
        <mxCell id="uDVQrx54FTQUmoYok5zQ-89" value="" style="shape=partialRectangle;connectable=0;fillColor=none;top=0;left=0;bottom=0;right=0;editable=1;overflow=hidden;whiteSpace=wrap;html=1;labelBackgroundColor=none;strokeColor=#457B9D;fontColor=#1D3557;rounded=1;" parent="uDVQrx54FTQUmoYok5zQ-88" vertex="1">
          <mxGeometry width="70" height="30" as="geometry">
            <mxRectangle width="70" height="30" as="alternateBounds" />
          </mxGeometry>
        </mxCell>
        <mxCell id="uDVQrx54FTQUmoYok5zQ-90" value="PaidFees" style="shape=partialRectangle;connectable=0;fillColor=none;top=0;left=0;bottom=0;right=0;align=left;spacingLeft=6;overflow=hidden;whiteSpace=wrap;html=1;labelBackgroundColor=none;strokeColor=#457B9D;fontColor=#1D3557;rounded=1;" parent="uDVQrx54FTQUmoYok5zQ-88" vertex="1">
          <mxGeometry x="70" width="110" height="30" as="geometry">
            <mxRectangle width="110" height="30" as="alternateBounds" />
          </mxGeometry>
        </mxCell>
        <mxCell id="uDVQrx54FTQUmoYok5zQ-91" value="smallmoney" style="shape=partialRectangle;connectable=0;fillColor=none;top=0;left=0;bottom=0;right=0;align=left;spacingLeft=6;overflow=hidden;whiteSpace=wrap;html=1;labelBackgroundColor=none;strokeColor=#457B9D;fontColor=#1D3557;rounded=1;" parent="uDVQrx54FTQUmoYok5zQ-88" vertex="1">
          <mxGeometry x="180" width="90" height="30" as="geometry">
            <mxRectangle width="90" height="30" as="alternateBounds" />
          </mxGeometry>
        </mxCell>
        <mxCell id="YgSKw44QeQ9h-YTFfs8t-20" value="Null" style="shape=partialRectangle;connectable=0;fillColor=none;top=0;left=0;bottom=0;right=0;align=left;spacingLeft=6;overflow=hidden;whiteSpace=wrap;html=1;labelBackgroundColor=none;strokeColor=#457B9D;fontColor=#1D3557;rounded=1;" parent="uDVQrx54FTQUmoYok5zQ-88" vertex="1">
          <mxGeometry x="270" width="70" height="30" as="geometry">
            <mxRectangle width="70" height="30" as="alternateBounds" />
          </mxGeometry>
        </mxCell>
        <mxCell id="uDVQrx54FTQUmoYok5zQ-104" value="" style="shape=tableRow;horizontal=0;startSize=0;swimlaneHead=0;swimlaneBody=0;fillColor=none;collapsible=0;dropTarget=0;points=[[0,0.5],[1,0.5]];portConstraint=eastwest;top=0;left=0;right=0;bottom=0;labelBackgroundColor=none;strokeColor=#457B9D;fontColor=#1D3557;rounded=1;" parent="uDVQrx54FTQUmoYok5zQ-79" vertex="1">
          <mxGeometry y="180" width="340" height="30" as="geometry" />
        </mxCell>
        <mxCell id="uDVQrx54FTQUmoYok5zQ-105" value="&lt;b&gt;FK&lt;/b&gt;" style="shape=partialRectangle;connectable=0;fillColor=none;top=0;left=0;bottom=0;right=0;editable=1;overflow=hidden;whiteSpace=wrap;html=1;labelBackgroundColor=none;strokeColor=#457B9D;fontColor=#1D3557;rounded=1;" parent="uDVQrx54FTQUmoYok5zQ-104" vertex="1">
          <mxGeometry width="70" height="30" as="geometry">
            <mxRectangle width="70" height="30" as="alternateBounds" />
          </mxGeometry>
        </mxCell>
        <mxCell id="uDVQrx54FTQUmoYok5zQ-106" value="&lt;span style=&quot;font-weight: 700; text-align: center; text-wrap-mode: nowrap; text-decoration-line: underline;&quot;&gt;ServiceID&lt;/span&gt;" style="shape=partialRectangle;connectable=0;fillColor=none;top=0;left=0;bottom=0;right=0;align=left;spacingLeft=6;overflow=hidden;whiteSpace=wrap;html=1;labelBackgroundColor=none;strokeColor=#457B9D;fontColor=#1D3557;rounded=1;" parent="uDVQrx54FTQUmoYok5zQ-104" vertex="1">
          <mxGeometry x="70" width="110" height="30" as="geometry">
            <mxRectangle width="110" height="30" as="alternateBounds" />
          </mxGeometry>
        </mxCell>
        <mxCell id="uDVQrx54FTQUmoYok5zQ-107" value="int" style="shape=partialRectangle;connectable=0;fillColor=none;top=0;left=0;bottom=0;right=0;align=left;spacingLeft=6;overflow=hidden;whiteSpace=wrap;html=1;labelBackgroundColor=none;strokeColor=#457B9D;fontColor=#1D3557;rounded=1;" parent="uDVQrx54FTQUmoYok5zQ-104" vertex="1">
          <mxGeometry x="180" width="90" height="30" as="geometry">
            <mxRectangle width="90" height="30" as="alternateBounds" />
          </mxGeometry>
        </mxCell>
        <mxCell id="YgSKw44QeQ9h-YTFfs8t-21" value="&lt;span style=&quot;color: rgb(13, 13, 11);&quot;&gt;Not Null&lt;/span&gt;" style="shape=partialRectangle;connectable=0;fillColor=none;top=0;left=0;bottom=0;right=0;align=left;spacingLeft=6;overflow=hidden;whiteSpace=wrap;html=1;labelBackgroundColor=none;strokeColor=#457B9D;fontColor=#1D3557;rounded=1;" parent="uDVQrx54FTQUmoYok5zQ-104" vertex="1">
          <mxGeometry x="270" width="70" height="30" as="geometry">
            <mxRectangle width="70" height="30" as="alternateBounds" />
          </mxGeometry>
        </mxCell>
        <mxCell id="uDVQrx54FTQUmoYok5zQ-143" style="edgeStyle=orthogonalEdgeStyle;rounded=1;orthogonalLoop=1;jettySize=auto;html=1;exitX=1;exitY=0.5;exitDx=0;exitDy=0;endArrow=ERmandOne;endFill=0;startArrow=ERzeroToMany;startFill=0;labelBackgroundColor=none;strokeColor=#457B9D;fontColor=default;entryX=1;entryY=0.5;entryDx=0;entryDy=0;" parent="1" source="uDVQrx54FTQUmoYok5zQ-104" target="a82eVX8khh_YBaa5r9_A-327" edge="1">
          <mxGeometry relative="1" as="geometry">
            <mxPoint x="40" y="570" as="sourcePoint" />
            <mxPoint x="-70" y="800" as="targetPoint" />
          </mxGeometry>
        </mxCell>
        <mxCell id="r121lTBld_6SD0tSjvEL-32" value="UsersTypes" style="shape=table;startSize=30;container=1;collapsible=1;childLayout=tableLayout;fixedRows=1;rowLines=0;fontStyle=1;align=center;resizeLast=1;html=1;labelBackgroundColor=none;fillColor=#A8DADC;strokeColor=#457B9D;fontColor=#1D3557;rounded=1;" parent="1" vertex="1">
          <mxGeometry x="473.43999999999994" y="440" width="331.25" height="120" as="geometry" />
        </mxCell>
        <mxCell id="r121lTBld_6SD0tSjvEL-33" value="" style="shape=tableRow;horizontal=0;startSize=0;swimlaneHead=0;swimlaneBody=0;fillColor=none;collapsible=0;dropTarget=0;points=[[0,0.5],[1,0.5]];portConstraint=eastwest;top=0;left=0;right=0;bottom=1;labelBackgroundColor=none;strokeColor=#457B9D;fontColor=#1D3557;rounded=1;" parent="r121lTBld_6SD0tSjvEL-32" vertex="1">
          <mxGeometry y="30" width="331.25" height="30" as="geometry" />
        </mxCell>
        <mxCell id="r121lTBld_6SD0tSjvEL-34" value="PK" style="shape=partialRectangle;connectable=0;fillColor=none;top=0;left=0;bottom=0;right=0;fontStyle=1;overflow=hidden;whiteSpace=wrap;html=1;labelBackgroundColor=none;strokeColor=#457B9D;fontColor=#1D3557;rounded=1;" parent="r121lTBld_6SD0tSjvEL-33" vertex="1">
          <mxGeometry width="30" height="30" as="geometry">
            <mxRectangle width="30" height="30" as="alternateBounds" />
          </mxGeometry>
        </mxCell>
        <mxCell id="r121lTBld_6SD0tSjvEL-35" value="&lt;span style=&quot;text-align: center; text-wrap-mode: nowrap;&quot;&gt;UserTypeID&lt;/span&gt;" style="shape=partialRectangle;connectable=0;fillColor=none;top=0;left=0;bottom=0;right=0;align=left;spacingLeft=6;fontStyle=5;overflow=hidden;whiteSpace=wrap;html=1;labelBackgroundColor=none;strokeColor=#457B9D;fontColor=#1D3557;rounded=1;" parent="r121lTBld_6SD0tSjvEL-33" vertex="1">
          <mxGeometry x="30" width="150" height="30" as="geometry">
            <mxRectangle width="150" height="30" as="alternateBounds" />
          </mxGeometry>
        </mxCell>
        <mxCell id="r121lTBld_6SD0tSjvEL-36" value="int" style="shape=partialRectangle;connectable=0;fillColor=none;top=0;left=0;bottom=0;right=0;align=left;spacingLeft=6;fontStyle=5;overflow=hidden;whiteSpace=wrap;html=1;labelBackgroundColor=none;strokeColor=#457B9D;fontColor=#1D3557;rounded=1;" parent="r121lTBld_6SD0tSjvEL-33" vertex="1">
          <mxGeometry x="180" width="90" height="30" as="geometry">
            <mxRectangle width="90" height="30" as="alternateBounds" />
          </mxGeometry>
        </mxCell>
        <mxCell id="r121lTBld_6SD0tSjvEL-37" value="&lt;span style=&quot;color: rgb(13, 13, 11);&quot;&gt;Not Null&lt;/span&gt;" style="shape=partialRectangle;connectable=0;fillColor=none;top=0;left=0;bottom=0;right=0;align=left;spacingLeft=6;fontStyle=5;overflow=hidden;whiteSpace=wrap;html=1;labelBackgroundColor=none;strokeColor=#457B9D;fontColor=#1D3557;rounded=1;" parent="r121lTBld_6SD0tSjvEL-33" vertex="1">
          <mxGeometry x="270" width="61.25" height="30" as="geometry">
            <mxRectangle width="61.25" height="30" as="alternateBounds" />
          </mxGeometry>
        </mxCell>
        <mxCell id="r121lTBld_6SD0tSjvEL-38" value="" style="shape=tableRow;horizontal=0;startSize=0;swimlaneHead=0;swimlaneBody=0;fillColor=none;collapsible=0;dropTarget=0;points=[[0,0.5],[1,0.5]];portConstraint=eastwest;top=0;left=0;right=0;bottom=0;labelBackgroundColor=none;strokeColor=#457B9D;fontColor=#1D3557;rounded=1;" parent="r121lTBld_6SD0tSjvEL-32" vertex="1">
          <mxGeometry y="60" width="331.25" height="30" as="geometry" />
        </mxCell>
        <mxCell id="r121lTBld_6SD0tSjvEL-39" value="" style="shape=partialRectangle;connectable=0;fillColor=none;top=0;left=0;bottom=0;right=0;editable=1;overflow=hidden;whiteSpace=wrap;html=1;labelBackgroundColor=none;strokeColor=#457B9D;fontColor=#1D3557;rounded=1;" parent="r121lTBld_6SD0tSjvEL-38" vertex="1">
          <mxGeometry width="30" height="30" as="geometry">
            <mxRectangle width="30" height="30" as="alternateBounds" />
          </mxGeometry>
        </mxCell>
        <mxCell id="r121lTBld_6SD0tSjvEL-40" value="&lt;span style=&quot;text-align: center; text-wrap-mode: nowrap;&quot;&gt;Name&lt;/span&gt;" style="shape=partialRectangle;connectable=0;fillColor=none;top=0;left=0;bottom=0;right=0;align=left;spacingLeft=6;overflow=hidden;whiteSpace=wrap;html=1;labelBackgroundColor=none;strokeColor=#457B9D;fontColor=#1D3557;rounded=1;" parent="r121lTBld_6SD0tSjvEL-38" vertex="1">
          <mxGeometry x="30" width="150" height="30" as="geometry">
            <mxRectangle width="150" height="30" as="alternateBounds" />
          </mxGeometry>
        </mxCell>
        <mxCell id="r121lTBld_6SD0tSjvEL-41" value="int" style="shape=partialRectangle;connectable=0;fillColor=none;top=0;left=0;bottom=0;right=0;align=left;spacingLeft=6;overflow=hidden;whiteSpace=wrap;html=1;labelBackgroundColor=none;strokeColor=#457B9D;fontColor=#1D3557;rounded=1;" parent="r121lTBld_6SD0tSjvEL-38" vertex="1">
          <mxGeometry x="180" width="90" height="30" as="geometry">
            <mxRectangle width="90" height="30" as="alternateBounds" />
          </mxGeometry>
        </mxCell>
        <mxCell id="r121lTBld_6SD0tSjvEL-42" value="&lt;span style=&quot;color: rgb(13, 13, 11);&quot;&gt;Not Null&lt;/span&gt;" style="shape=partialRectangle;connectable=0;fillColor=none;top=0;left=0;bottom=0;right=0;align=left;spacingLeft=6;overflow=hidden;whiteSpace=wrap;html=1;labelBackgroundColor=none;strokeColor=#457B9D;fontColor=#1D3557;rounded=1;" parent="r121lTBld_6SD0tSjvEL-38" vertex="1">
          <mxGeometry x="270" width="61.25" height="30" as="geometry">
            <mxRectangle width="61.25" height="30" as="alternateBounds" />
          </mxGeometry>
        </mxCell>
        <mxCell id="r121lTBld_6SD0tSjvEL-48" style="shape=tableRow;horizontal=0;startSize=0;swimlaneHead=0;swimlaneBody=0;fillColor=none;collapsible=0;dropTarget=0;points=[[0,0.5],[1,0.5]];portConstraint=eastwest;top=0;left=0;right=0;bottom=0;labelBackgroundColor=none;strokeColor=#457B9D;fontColor=#1D3557;rounded=1;" parent="r121lTBld_6SD0tSjvEL-32" vertex="1">
          <mxGeometry y="90" width="331.25" height="30" as="geometry" />
        </mxCell>
        <mxCell id="r121lTBld_6SD0tSjvEL-49" style="shape=partialRectangle;connectable=0;fillColor=none;top=0;left=0;bottom=0;right=0;editable=1;overflow=hidden;whiteSpace=wrap;html=1;labelBackgroundColor=none;strokeColor=#457B9D;fontColor=#1D3557;rounded=1;" parent="r121lTBld_6SD0tSjvEL-48" vertex="1">
          <mxGeometry width="30" height="30" as="geometry">
            <mxRectangle width="30" height="30" as="alternateBounds" />
          </mxGeometry>
        </mxCell>
        <mxCell id="r121lTBld_6SD0tSjvEL-50" value="&lt;span style=&quot;text-align: center; text-wrap-mode: nowrap;&quot;&gt;Description&lt;/span&gt;" style="shape=partialRectangle;connectable=0;fillColor=none;top=0;left=0;bottom=0;right=0;align=left;spacingLeft=6;overflow=hidden;whiteSpace=wrap;html=1;labelBackgroundColor=none;strokeColor=#457B9D;fontColor=#1D3557;rounded=1;" parent="r121lTBld_6SD0tSjvEL-48" vertex="1">
          <mxGeometry x="30" width="150" height="30" as="geometry">
            <mxRectangle width="150" height="30" as="alternateBounds" />
          </mxGeometry>
        </mxCell>
        <mxCell id="r121lTBld_6SD0tSjvEL-51" value="nvarchar(500)" style="shape=partialRectangle;connectable=0;fillColor=none;top=0;left=0;bottom=0;right=0;align=left;spacingLeft=6;overflow=hidden;whiteSpace=wrap;html=1;labelBackgroundColor=none;strokeColor=#457B9D;fontColor=#1D3557;rounded=1;" parent="r121lTBld_6SD0tSjvEL-48" vertex="1">
          <mxGeometry x="180" width="90" height="30" as="geometry">
            <mxRectangle width="90" height="30" as="alternateBounds" />
          </mxGeometry>
        </mxCell>
        <mxCell id="r121lTBld_6SD0tSjvEL-52" value="Null" style="shape=partialRectangle;connectable=0;fillColor=none;top=0;left=0;bottom=0;right=0;align=left;spacingLeft=6;overflow=hidden;whiteSpace=wrap;html=1;labelBackgroundColor=none;strokeColor=#457B9D;fontColor=#1D3557;rounded=1;" parent="r121lTBld_6SD0tSjvEL-48" vertex="1">
          <mxGeometry x="270" width="61.25" height="30" as="geometry">
            <mxRectangle width="61.25" height="30" as="alternateBounds" />
          </mxGeometry>
        </mxCell>
        <mxCell id="r121lTBld_6SD0tSjvEL-68" style="edgeStyle=orthogonalEdgeStyle;rounded=1;orthogonalLoop=1;jettySize=auto;html=1;exitX=0;exitY=0.5;exitDx=0;exitDy=0;entryX=0;entryY=0.5;entryDx=0;entryDy=0;labelBackgroundColor=none;strokeColor=#457B9D;fontColor=default;endArrow=ERzeroToMany;endFill=0;startArrow=ERmandOne;startFill=0;" parent="1" source="r121lTBld_6SD0tSjvEL-33" target="r121lTBld_6SD0tSjvEL-58" edge="1">
          <mxGeometry relative="1" as="geometry" />
        </mxCell>
        <mxCell id="r121lTBld_6SD0tSjvEL-144" value="&lt;span&gt;&lt;font style=&quot;color: rgb(0, 0, 0);&quot;&gt;ServicesTypes&lt;/font&gt;&lt;/span&gt;" style="shape=table;startSize=30;container=1;collapsible=1;childLayout=tableLayout;fixedRows=1;rowLines=0;fontStyle=1;align=center;resizeLast=1;html=1;labelBackgroundColor=none;fillColor=#A8DADC;strokeColor=#457B9D;fontColor=#1D3557;rounded=1;" parent="1" vertex="1">
          <mxGeometry x="-150.00000000000006" y="700" width="340" height="150" as="geometry" />
        </mxCell>
        <mxCell id="r121lTBld_6SD0tSjvEL-145" value="" style="shape=tableRow;horizontal=0;startSize=0;swimlaneHead=0;swimlaneBody=0;fillColor=none;collapsible=0;dropTarget=0;points=[[0,0.5],[1,0.5]];portConstraint=eastwest;top=0;left=0;right=0;bottom=1;labelBackgroundColor=none;strokeColor=#457B9D;fontColor=#1D3557;rounded=1;" parent="r121lTBld_6SD0tSjvEL-144" vertex="1">
          <mxGeometry y="30" width="340" height="30" as="geometry" />
        </mxCell>
        <mxCell id="r121lTBld_6SD0tSjvEL-146" value="PK" style="shape=partialRectangle;connectable=0;fillColor=none;top=0;left=0;bottom=0;right=0;fontStyle=1;overflow=hidden;whiteSpace=wrap;html=1;labelBackgroundColor=none;strokeColor=#457B9D;fontColor=#1D3557;rounded=1;" parent="r121lTBld_6SD0tSjvEL-145" vertex="1">
          <mxGeometry width="30" height="30" as="geometry">
            <mxRectangle width="30" height="30" as="alternateBounds" />
          </mxGeometry>
        </mxCell>
        <mxCell id="r121lTBld_6SD0tSjvEL-147" value="&lt;span style=&quot;text-align: center; text-wrap-mode: nowrap;&quot;&gt;&lt;font&gt;Service&lt;/font&gt;&lt;/span&gt;&lt;span style=&quot;text-align: center; text-wrap-mode: nowrap; background-color: transparent; color: light-dark(rgb(70, 73, 93), rgb(170, 173, 190));&quot;&gt;TypeID&lt;/span&gt;" style="shape=partialRectangle;connectable=0;fillColor=none;top=0;left=0;bottom=0;right=0;align=left;spacingLeft=6;fontStyle=5;overflow=hidden;whiteSpace=wrap;html=1;labelBackgroundColor=none;strokeColor=#457B9D;fontColor=#1D3557;rounded=1;" parent="r121lTBld_6SD0tSjvEL-145" vertex="1">
          <mxGeometry x="30" width="150" height="30" as="geometry">
            <mxRectangle width="150" height="30" as="alternateBounds" />
          </mxGeometry>
        </mxCell>
        <mxCell id="r121lTBld_6SD0tSjvEL-148" value="int" style="shape=partialRectangle;connectable=0;fillColor=none;top=0;left=0;bottom=0;right=0;align=left;spacingLeft=6;fontStyle=5;overflow=hidden;whiteSpace=wrap;html=1;labelBackgroundColor=none;strokeColor=#457B9D;fontColor=#1D3557;rounded=1;" parent="r121lTBld_6SD0tSjvEL-145" vertex="1">
          <mxGeometry x="180" width="90" height="30" as="geometry">
            <mxRectangle width="90" height="30" as="alternateBounds" />
          </mxGeometry>
        </mxCell>
        <mxCell id="r121lTBld_6SD0tSjvEL-149" value="&lt;span style=&quot;font-weight: 400;&quot;&gt;&lt;font style=&quot;color: light-dark(rgb(226, 226, 224), rgb(255, 255, 247));&quot;&gt;Not Null&lt;/font&gt;&lt;/span&gt;" style="shape=partialRectangle;connectable=0;fillColor=none;top=0;left=0;bottom=0;right=0;align=left;spacingLeft=6;fontStyle=5;overflow=hidden;whiteSpace=wrap;html=1;labelBackgroundColor=none;strokeColor=#457B9D;fontColor=#1D3557;rounded=1;" parent="r121lTBld_6SD0tSjvEL-145" vertex="1">
          <mxGeometry x="270" width="70" height="30" as="geometry">
            <mxRectangle width="70" height="30" as="alternateBounds" />
          </mxGeometry>
        </mxCell>
        <mxCell id="r121lTBld_6SD0tSjvEL-150" value="" style="shape=tableRow;horizontal=0;startSize=0;swimlaneHead=0;swimlaneBody=0;fillColor=none;collapsible=0;dropTarget=0;points=[[0,0.5],[1,0.5]];portConstraint=eastwest;top=0;left=0;right=0;bottom=0;labelBackgroundColor=none;strokeColor=#457B9D;fontColor=#1D3557;rounded=1;" parent="r121lTBld_6SD0tSjvEL-144" vertex="1">
          <mxGeometry y="60" width="340" height="30" as="geometry" />
        </mxCell>
        <mxCell id="r121lTBld_6SD0tSjvEL-151" value="" style="shape=partialRectangle;connectable=0;fillColor=none;top=0;left=0;bottom=0;right=0;editable=1;overflow=hidden;whiteSpace=wrap;html=1;labelBackgroundColor=none;strokeColor=#457B9D;fontColor=#1D3557;rounded=1;" parent="r121lTBld_6SD0tSjvEL-150" vertex="1">
          <mxGeometry width="30" height="30" as="geometry">
            <mxRectangle width="30" height="30" as="alternateBounds" />
          </mxGeometry>
        </mxCell>
        <mxCell id="r121lTBld_6SD0tSjvEL-152" value="&lt;span style=&quot;text-align: center; text-wrap-mode: nowrap;&quot;&gt;Name&lt;/span&gt;" style="shape=partialRectangle;connectable=0;fillColor=none;top=0;left=0;bottom=0;right=0;align=left;spacingLeft=6;overflow=hidden;whiteSpace=wrap;html=1;labelBackgroundColor=none;strokeColor=#457B9D;fontColor=#1D3557;rounded=1;" parent="r121lTBld_6SD0tSjvEL-150" vertex="1">
          <mxGeometry x="30" width="150" height="30" as="geometry">
            <mxRectangle width="150" height="30" as="alternateBounds" />
          </mxGeometry>
        </mxCell>
        <mxCell id="r121lTBld_6SD0tSjvEL-153" value="nvarchar(50)" style="shape=partialRectangle;connectable=0;fillColor=none;top=0;left=0;bottom=0;right=0;align=left;spacingLeft=6;overflow=hidden;whiteSpace=wrap;html=1;labelBackgroundColor=none;strokeColor=#457B9D;fontColor=#1D3557;rounded=1;" parent="r121lTBld_6SD0tSjvEL-150" vertex="1">
          <mxGeometry x="180" width="90" height="30" as="geometry">
            <mxRectangle width="90" height="30" as="alternateBounds" />
          </mxGeometry>
        </mxCell>
        <mxCell id="r121lTBld_6SD0tSjvEL-154" value="&lt;span style=&quot;color: rgb(13, 13, 11);&quot;&gt;Not Null&lt;/span&gt;" style="shape=partialRectangle;connectable=0;fillColor=none;top=0;left=0;bottom=0;right=0;align=left;spacingLeft=6;overflow=hidden;whiteSpace=wrap;html=1;labelBackgroundColor=none;strokeColor=#457B9D;fontColor=#1D3557;rounded=1;" parent="r121lTBld_6SD0tSjvEL-150" vertex="1">
          <mxGeometry x="270" width="70" height="30" as="geometry">
            <mxRectangle width="70" height="30" as="alternateBounds" />
          </mxGeometry>
        </mxCell>
        <mxCell id="r121lTBld_6SD0tSjvEL-155" value="" style="shape=tableRow;horizontal=0;startSize=0;swimlaneHead=0;swimlaneBody=0;fillColor=none;collapsible=0;dropTarget=0;points=[[0,0.5],[1,0.5]];portConstraint=eastwest;top=0;left=0;right=0;bottom=0;labelBackgroundColor=none;strokeColor=#457B9D;fontColor=#1D3557;rounded=1;" parent="r121lTBld_6SD0tSjvEL-144" vertex="1">
          <mxGeometry y="90" width="340" height="30" as="geometry" />
        </mxCell>
        <mxCell id="r121lTBld_6SD0tSjvEL-156" value="" style="shape=partialRectangle;connectable=0;fillColor=none;top=0;left=0;bottom=0;right=0;editable=1;overflow=hidden;whiteSpace=wrap;html=1;labelBackgroundColor=none;strokeColor=#457B9D;fontColor=#1D3557;rounded=1;" parent="r121lTBld_6SD0tSjvEL-155" vertex="1">
          <mxGeometry width="30" height="30" as="geometry">
            <mxRectangle width="30" height="30" as="alternateBounds" />
          </mxGeometry>
        </mxCell>
        <mxCell id="r121lTBld_6SD0tSjvEL-157" value="&lt;div style=&quot;text-align: center;&quot;&gt;&lt;span style=&quot;background-color: transparent; text-wrap-mode: nowrap;&quot;&gt;Description&lt;/span&gt;&lt;/div&gt;" style="shape=partialRectangle;connectable=0;fillColor=none;top=0;left=0;bottom=0;right=0;align=left;spacingLeft=6;overflow=hidden;whiteSpace=wrap;html=1;labelBackgroundColor=none;strokeColor=#457B9D;fontColor=#1D3557;rounded=1;" parent="r121lTBld_6SD0tSjvEL-155" vertex="1">
          <mxGeometry x="30" width="150" height="30" as="geometry">
            <mxRectangle width="150" height="30" as="alternateBounds" />
          </mxGeometry>
        </mxCell>
        <mxCell id="r121lTBld_6SD0tSjvEL-158" value="nvarchar(500)" style="shape=partialRectangle;connectable=0;fillColor=none;top=0;left=0;bottom=0;right=0;align=left;spacingLeft=6;overflow=hidden;whiteSpace=wrap;html=1;labelBackgroundColor=none;strokeColor=#457B9D;fontColor=#1D3557;rounded=1;" parent="r121lTBld_6SD0tSjvEL-155" vertex="1">
          <mxGeometry x="180" width="90" height="30" as="geometry">
            <mxRectangle width="90" height="30" as="alternateBounds" />
          </mxGeometry>
        </mxCell>
        <mxCell id="r121lTBld_6SD0tSjvEL-159" value="Null" style="shape=partialRectangle;connectable=0;fillColor=none;top=0;left=0;bottom=0;right=0;align=left;spacingLeft=6;overflow=hidden;whiteSpace=wrap;html=1;labelBackgroundColor=none;strokeColor=#457B9D;fontColor=#1D3557;rounded=1;" parent="r121lTBld_6SD0tSjvEL-155" vertex="1">
          <mxGeometry x="270" width="70" height="30" as="geometry">
            <mxRectangle width="70" height="30" as="alternateBounds" />
          </mxGeometry>
        </mxCell>
        <mxCell id="r121lTBld_6SD0tSjvEL-160" style="shape=tableRow;horizontal=0;startSize=0;swimlaneHead=0;swimlaneBody=0;fillColor=none;collapsible=0;dropTarget=0;points=[[0,0.5],[1,0.5]];portConstraint=eastwest;top=0;left=0;right=0;bottom=0;labelBackgroundColor=none;strokeColor=#457B9D;fontColor=#1D3557;rounded=1;" parent="r121lTBld_6SD0tSjvEL-144" vertex="1">
          <mxGeometry y="120" width="340" height="30" as="geometry" />
        </mxCell>
        <mxCell id="r121lTBld_6SD0tSjvEL-161" value="" style="shape=partialRectangle;connectable=0;fillColor=none;top=0;left=0;bottom=0;right=0;editable=1;overflow=hidden;whiteSpace=wrap;html=1;labelBackgroundColor=none;strokeColor=#457B9D;fontColor=#1D3557;rounded=1;" parent="r121lTBld_6SD0tSjvEL-160" vertex="1">
          <mxGeometry width="30" height="30" as="geometry">
            <mxRectangle width="30" height="30" as="alternateBounds" />
          </mxGeometry>
        </mxCell>
        <mxCell id="r121lTBld_6SD0tSjvEL-162" value="IsActive" style="shape=partialRectangle;connectable=0;fillColor=none;top=0;left=0;bottom=0;right=0;align=left;spacingLeft=6;overflow=hidden;whiteSpace=wrap;html=1;labelBackgroundColor=none;strokeColor=#457B9D;fontColor=#1D3557;rounded=1;" parent="r121lTBld_6SD0tSjvEL-160" vertex="1">
          <mxGeometry x="30" width="150" height="30" as="geometry">
            <mxRectangle width="150" height="30" as="alternateBounds" />
          </mxGeometry>
        </mxCell>
        <mxCell id="r121lTBld_6SD0tSjvEL-163" value="bit" style="shape=partialRectangle;connectable=0;fillColor=none;top=0;left=0;bottom=0;right=0;align=left;spacingLeft=6;overflow=hidden;whiteSpace=wrap;html=1;labelBackgroundColor=none;strokeColor=#457B9D;fontColor=#1D3557;rounded=1;" parent="r121lTBld_6SD0tSjvEL-160" vertex="1">
          <mxGeometry x="180" width="90" height="30" as="geometry">
            <mxRectangle width="90" height="30" as="alternateBounds" />
          </mxGeometry>
        </mxCell>
        <mxCell id="r121lTBld_6SD0tSjvEL-164" value="&lt;span style=&quot;color: rgb(13, 13, 11);&quot;&gt;Not Null&lt;/span&gt;" style="shape=partialRectangle;connectable=0;fillColor=none;top=0;left=0;bottom=0;right=0;align=left;spacingLeft=6;overflow=hidden;whiteSpace=wrap;html=1;labelBackgroundColor=none;strokeColor=#457B9D;fontColor=#1D3557;rounded=1;" parent="r121lTBld_6SD0tSjvEL-160" vertex="1">
          <mxGeometry x="270" width="70" height="30" as="geometry">
            <mxRectangle width="70" height="30" as="alternateBounds" />
          </mxGeometry>
        </mxCell>
        <mxCell id="r121lTBld_6SD0tSjvEL-165" style="edgeStyle=orthogonalEdgeStyle;rounded=1;orthogonalLoop=1;jettySize=auto;html=1;exitX=1;exitY=0.5;exitDx=0;exitDy=0;entryX=1;entryY=0.5;entryDx=0;entryDy=0;endArrow=ERmandOne;endFill=0;startArrow=ERzeroToMany;startFill=0;labelBackgroundColor=none;strokeColor=#457B9D;fontColor=default;" parent="1" source="a82eVX8khh_YBaa5r9_A-331" target="r121lTBld_6SD0tSjvEL-145" edge="1">
          <mxGeometry relative="1" as="geometry" />
        </mxCell>
        <mxCell id="r121lTBld_6SD0tSjvEL-176" style="edgeStyle=orthogonalEdgeStyle;rounded=1;orthogonalLoop=1;jettySize=auto;html=1;exitX=1;exitY=0.5;exitDx=0;exitDy=0;entryX=0;entryY=0.5;entryDx=0;entryDy=0;labelBackgroundColor=none;strokeColor=#457B9D;fontColor=default;endArrow=ERmandOne;endFill=0;startArrow=ERzeroToMany;startFill=0;" parent="1" source="uDVQrx54FTQUmoYok5zQ-144" target="uDVQrx54FTQUmoYok5zQ-2" edge="1">
          <mxGeometry relative="1" as="geometry" />
        </mxCell>
        <mxCell id="BOfY78hwmL3YtLzqcc-a-2" value="&lt;div style=&quot;text-align: left;&quot;&gt;&lt;span style=&quot;background-color: transparent; text-wrap-mode: wrap;&quot;&gt;Feedbacks&lt;/span&gt;&lt;/div&gt;" style="shape=table;startSize=30;container=1;collapsible=1;childLayout=tableLayout;fixedRows=1;rowLines=0;fontStyle=1;align=center;resizeLast=1;html=1;labelBackgroundColor=none;fillColor=#A8DADC;strokeColor=#457B9D;fontColor=#1D3557;rounded=1;" parent="1" vertex="1">
          <mxGeometry x="-690" y="50" width="400" height="180" as="geometry" />
        </mxCell>
        <mxCell id="BOfY78hwmL3YtLzqcc-a-3" value="" style="shape=tableRow;horizontal=0;startSize=0;swimlaneHead=0;swimlaneBody=0;fillColor=none;collapsible=0;dropTarget=0;points=[[0,0.5],[1,0.5]];portConstraint=eastwest;top=0;left=0;right=0;bottom=1;labelBackgroundColor=none;strokeColor=#457B9D;fontColor=#1D3557;rounded=1;" parent="BOfY78hwmL3YtLzqcc-a-2" vertex="1">
          <mxGeometry y="30" width="400" height="30" as="geometry" />
        </mxCell>
        <mxCell id="BOfY78hwmL3YtLzqcc-a-4" value="PK" style="shape=partialRectangle;connectable=0;fillColor=none;top=0;left=0;bottom=0;right=0;fontStyle=1;overflow=hidden;whiteSpace=wrap;html=1;labelBackgroundColor=none;strokeColor=#457B9D;fontColor=#1D3557;rounded=1;" parent="BOfY78hwmL3YtLzqcc-a-3" vertex="1">
          <mxGeometry width="130" height="30" as="geometry">
            <mxRectangle width="130" height="30" as="alternateBounds" />
          </mxGeometry>
        </mxCell>
        <mxCell id="BOfY78hwmL3YtLzqcc-a-5" value="FeedbackID" style="shape=partialRectangle;connectable=0;fillColor=none;top=0;left=0;bottom=0;right=0;align=left;spacingLeft=6;fontStyle=5;overflow=hidden;whiteSpace=wrap;html=1;labelBackgroundColor=none;strokeColor=#457B9D;fontColor=#1D3557;rounded=1;" parent="BOfY78hwmL3YtLzqcc-a-3" vertex="1">
          <mxGeometry x="130" width="100" height="30" as="geometry">
            <mxRectangle width="100" height="30" as="alternateBounds" />
          </mxGeometry>
        </mxCell>
        <mxCell id="BOfY78hwmL3YtLzqcc-a-6" value="int" style="shape=partialRectangle;connectable=0;fillColor=none;top=0;left=0;bottom=0;right=0;align=left;spacingLeft=6;fontStyle=5;overflow=hidden;whiteSpace=wrap;html=1;labelBackgroundColor=none;strokeColor=#457B9D;fontColor=#1D3557;rounded=1;" parent="BOfY78hwmL3YtLzqcc-a-3" vertex="1">
          <mxGeometry x="230" width="100" height="30" as="geometry">
            <mxRectangle width="100" height="30" as="alternateBounds" />
          </mxGeometry>
        </mxCell>
        <mxCell id="BOfY78hwmL3YtLzqcc-a-7" value="&lt;span style=&quot;font-weight: 400;&quot;&gt;&lt;font style=&quot;color: light-dark(rgb(226, 226, 224), rgb(237, 237, 224));&quot;&gt;Not Null&lt;/font&gt;&lt;/span&gt;" style="shape=partialRectangle;connectable=0;fillColor=none;top=0;left=0;bottom=0;right=0;align=left;spacingLeft=6;fontStyle=5;overflow=hidden;whiteSpace=wrap;html=1;labelBackgroundColor=none;strokeColor=#457B9D;fontColor=#1D3557;rounded=1;" parent="BOfY78hwmL3YtLzqcc-a-3" vertex="1">
          <mxGeometry x="330" width="70" height="30" as="geometry">
            <mxRectangle width="70" height="30" as="alternateBounds" />
          </mxGeometry>
        </mxCell>
        <mxCell id="BOfY78hwmL3YtLzqcc-a-8" style="shape=tableRow;horizontal=0;startSize=0;swimlaneHead=0;swimlaneBody=0;fillColor=none;collapsible=0;dropTarget=0;points=[[0,0.5],[1,0.5]];portConstraint=eastwest;top=0;left=0;right=0;bottom=0;labelBackgroundColor=none;strokeColor=#457B9D;fontColor=#1D3557;rounded=1;" parent="BOfY78hwmL3YtLzqcc-a-2" vertex="1">
          <mxGeometry y="60" width="400" height="30" as="geometry" />
        </mxCell>
        <mxCell id="BOfY78hwmL3YtLzqcc-a-9" value="&lt;b&gt;FK&lt;/b&gt;" style="shape=partialRectangle;connectable=0;fillColor=none;top=0;left=0;bottom=0;right=0;editable=1;overflow=hidden;whiteSpace=wrap;html=1;labelBackgroundColor=none;strokeColor=#457B9D;fontColor=#1D3557;rounded=1;" parent="BOfY78hwmL3YtLzqcc-a-8" vertex="1">
          <mxGeometry width="130" height="30" as="geometry">
            <mxRectangle width="130" height="30" as="alternateBounds" />
          </mxGeometry>
        </mxCell>
        <mxCell id="BOfY78hwmL3YtLzqcc-a-10" value="&lt;span style=&quot;font-weight: 700; text-decoration-line: underline;&quot;&gt;ReservationID&lt;/span&gt;" style="shape=partialRectangle;connectable=0;fillColor=none;top=0;left=0;bottom=0;right=0;align=left;spacingLeft=6;overflow=hidden;whiteSpace=wrap;html=1;labelBackgroundColor=none;strokeColor=#457B9D;fontColor=#1D3557;rounded=1;" parent="BOfY78hwmL3YtLzqcc-a-8" vertex="1">
          <mxGeometry x="130" width="100" height="30" as="geometry">
            <mxRectangle width="100" height="30" as="alternateBounds" />
          </mxGeometry>
        </mxCell>
        <mxCell id="BOfY78hwmL3YtLzqcc-a-11" value="int" style="shape=partialRectangle;connectable=0;fillColor=none;top=0;left=0;bottom=0;right=0;align=left;spacingLeft=6;overflow=hidden;whiteSpace=wrap;html=1;labelBackgroundColor=none;strokeColor=#457B9D;fontColor=#1D3557;rounded=1;" parent="BOfY78hwmL3YtLzqcc-a-8" vertex="1">
          <mxGeometry x="230" width="100" height="30" as="geometry">
            <mxRectangle width="100" height="30" as="alternateBounds" />
          </mxGeometry>
        </mxCell>
        <mxCell id="BOfY78hwmL3YtLzqcc-a-12" value="&lt;span style=&quot;color: rgb(13, 13, 11);&quot;&gt;Not Null&lt;/span&gt;" style="shape=partialRectangle;connectable=0;fillColor=none;top=0;left=0;bottom=0;right=0;align=left;spacingLeft=6;overflow=hidden;whiteSpace=wrap;html=1;labelBackgroundColor=none;strokeColor=#457B9D;fontColor=#1D3557;rounded=1;" parent="BOfY78hwmL3YtLzqcc-a-8" vertex="1">
          <mxGeometry x="330" width="70" height="30" as="geometry">
            <mxRectangle width="70" height="30" as="alternateBounds" />
          </mxGeometry>
        </mxCell>
        <mxCell id="BOfY78hwmL3YtLzqcc-a-13" style="shape=tableRow;horizontal=0;startSize=0;swimlaneHead=0;swimlaneBody=0;fillColor=none;collapsible=0;dropTarget=0;points=[[0,0.5],[1,0.5]];portConstraint=eastwest;top=0;left=0;right=0;bottom=0;labelBackgroundColor=none;strokeColor=#457B9D;fontColor=#1D3557;rounded=1;" parent="BOfY78hwmL3YtLzqcc-a-2" vertex="1">
          <mxGeometry y="90" width="400" height="30" as="geometry" />
        </mxCell>
        <mxCell id="BOfY78hwmL3YtLzqcc-a-14" value="&lt;span style=&quot;text-align: left;&quot;&gt;&lt;b&gt;Default (DateNow)&lt;/b&gt;&lt;/span&gt;" style="shape=partialRectangle;connectable=0;fillColor=none;top=0;left=0;bottom=0;right=0;editable=1;overflow=hidden;whiteSpace=wrap;html=1;labelBackgroundColor=none;strokeColor=#457B9D;fontColor=#1D3557;rounded=1;" parent="BOfY78hwmL3YtLzqcc-a-13" vertex="1">
          <mxGeometry width="130" height="30" as="geometry">
            <mxRectangle width="130" height="30" as="alternateBounds" />
          </mxGeometry>
        </mxCell>
        <mxCell id="BOfY78hwmL3YtLzqcc-a-15" value="FeedbackDate&amp;nbsp;" style="shape=partialRectangle;connectable=0;fillColor=none;top=0;left=0;bottom=0;right=0;align=left;spacingLeft=6;overflow=hidden;whiteSpace=wrap;html=1;labelBackgroundColor=none;strokeColor=#457B9D;fontColor=#1D3557;rounded=1;" parent="BOfY78hwmL3YtLzqcc-a-13" vertex="1">
          <mxGeometry x="130" width="100" height="30" as="geometry">
            <mxRectangle width="100" height="30" as="alternateBounds" />
          </mxGeometry>
        </mxCell>
        <mxCell id="BOfY78hwmL3YtLzqcc-a-16" value="datetime" style="shape=partialRectangle;connectable=0;fillColor=none;top=0;left=0;bottom=0;right=0;align=left;spacingLeft=6;overflow=hidden;whiteSpace=wrap;html=1;labelBackgroundColor=none;strokeColor=#457B9D;fontColor=#1D3557;rounded=1;" parent="BOfY78hwmL3YtLzqcc-a-13" vertex="1">
          <mxGeometry x="230" width="100" height="30" as="geometry">
            <mxRectangle width="100" height="30" as="alternateBounds" />
          </mxGeometry>
        </mxCell>
        <mxCell id="BOfY78hwmL3YtLzqcc-a-17" value="&lt;span style=&quot;color: rgb(13, 13, 11);&quot;&gt;Not Null&lt;/span&gt;" style="shape=partialRectangle;connectable=0;fillColor=none;top=0;left=0;bottom=0;right=0;align=left;spacingLeft=6;overflow=hidden;whiteSpace=wrap;html=1;labelBackgroundColor=none;strokeColor=#457B9D;fontColor=#1D3557;rounded=1;" parent="BOfY78hwmL3YtLzqcc-a-13" vertex="1">
          <mxGeometry x="330" width="70" height="30" as="geometry">
            <mxRectangle width="70" height="30" as="alternateBounds" />
          </mxGeometry>
        </mxCell>
        <mxCell id="BOfY78hwmL3YtLzqcc-a-18" style="shape=tableRow;horizontal=0;startSize=0;swimlaneHead=0;swimlaneBody=0;fillColor=none;collapsible=0;dropTarget=0;points=[[0,0.5],[1,0.5]];portConstraint=eastwest;top=0;left=0;right=0;bottom=0;labelBackgroundColor=none;strokeColor=#457B9D;fontColor=#1D3557;rounded=1;" parent="BOfY78hwmL3YtLzqcc-a-2" vertex="1">
          <mxGeometry y="120" width="400" height="30" as="geometry" />
        </mxCell>
        <mxCell id="BOfY78hwmL3YtLzqcc-a-19" value="&lt;b&gt;CHECK (Rating BETWEEN 1 AND 5&lt;/b&gt;" style="shape=partialRectangle;connectable=0;fillColor=none;top=0;left=0;bottom=0;right=0;editable=1;overflow=hidden;whiteSpace=wrap;html=1;labelBackgroundColor=none;strokeColor=#457B9D;fontColor=#1D3557;rounded=1;" parent="BOfY78hwmL3YtLzqcc-a-18" vertex="1">
          <mxGeometry width="130" height="30" as="geometry">
            <mxRectangle width="130" height="30" as="alternateBounds" />
          </mxGeometry>
        </mxCell>
        <mxCell id="BOfY78hwmL3YtLzqcc-a-20" value="Rating" style="shape=partialRectangle;connectable=0;fillColor=none;top=0;left=0;bottom=0;right=0;align=left;spacingLeft=6;overflow=hidden;whiteSpace=wrap;html=1;labelBackgroundColor=none;strokeColor=#457B9D;fontColor=#1D3557;rounded=1;" parent="BOfY78hwmL3YtLzqcc-a-18" vertex="1">
          <mxGeometry x="130" width="100" height="30" as="geometry">
            <mxRectangle width="100" height="30" as="alternateBounds" />
          </mxGeometry>
        </mxCell>
        <mxCell id="BOfY78hwmL3YtLzqcc-a-21" value="tinyint" style="shape=partialRectangle;connectable=0;fillColor=none;top=0;left=0;bottom=0;right=0;align=left;spacingLeft=6;overflow=hidden;whiteSpace=wrap;html=1;labelBackgroundColor=none;strokeColor=#457B9D;fontColor=#1D3557;rounded=1;" parent="BOfY78hwmL3YtLzqcc-a-18" vertex="1">
          <mxGeometry x="230" width="100" height="30" as="geometry">
            <mxRectangle width="100" height="30" as="alternateBounds" />
          </mxGeometry>
        </mxCell>
        <mxCell id="BOfY78hwmL3YtLzqcc-a-22" value="&lt;span style=&quot;color: rgb(13, 13, 11);&quot;&gt;Not Null&lt;/span&gt;" style="shape=partialRectangle;connectable=0;fillColor=none;top=0;left=0;bottom=0;right=0;align=left;spacingLeft=6;overflow=hidden;whiteSpace=wrap;html=1;labelBackgroundColor=none;strokeColor=#457B9D;fontColor=#1D3557;rounded=1;" parent="BOfY78hwmL3YtLzqcc-a-18" vertex="1">
          <mxGeometry x="330" width="70" height="30" as="geometry">
            <mxRectangle width="70" height="30" as="alternateBounds" />
          </mxGeometry>
        </mxCell>
        <mxCell id="BOfY78hwmL3YtLzqcc-a-23" value="" style="shape=tableRow;horizontal=0;startSize=0;swimlaneHead=0;swimlaneBody=0;fillColor=none;collapsible=0;dropTarget=0;points=[[0,0.5],[1,0.5]];portConstraint=eastwest;top=0;left=0;right=0;bottom=0;labelBackgroundColor=none;strokeColor=#457B9D;fontColor=#1D3557;rounded=1;" parent="BOfY78hwmL3YtLzqcc-a-2" vertex="1">
          <mxGeometry y="150" width="400" height="30" as="geometry" />
        </mxCell>
        <mxCell id="BOfY78hwmL3YtLzqcc-a-24" value="" style="shape=partialRectangle;connectable=0;fillColor=none;top=0;left=0;bottom=0;right=0;editable=1;overflow=hidden;whiteSpace=wrap;html=1;labelBackgroundColor=none;strokeColor=#457B9D;fontColor=#1D3557;rounded=1;" parent="BOfY78hwmL3YtLzqcc-a-23" vertex="1">
          <mxGeometry width="130" height="30" as="geometry">
            <mxRectangle width="130" height="30" as="alternateBounds" />
          </mxGeometry>
        </mxCell>
        <mxCell id="BOfY78hwmL3YtLzqcc-a-25" value="Comment&amp;nbsp;" style="shape=partialRectangle;connectable=0;fillColor=none;top=0;left=0;bottom=0;right=0;align=left;spacingLeft=6;overflow=hidden;whiteSpace=wrap;html=1;labelBackgroundColor=none;strokeColor=#457B9D;fontColor=#1D3557;rounded=1;" parent="BOfY78hwmL3YtLzqcc-a-23" vertex="1">
          <mxGeometry x="130" width="100" height="30" as="geometry">
            <mxRectangle width="100" height="30" as="alternateBounds" />
          </mxGeometry>
        </mxCell>
        <mxCell id="BOfY78hwmL3YtLzqcc-a-26" value="nvarchar(1000)" style="shape=partialRectangle;connectable=0;fillColor=none;top=0;left=0;bottom=0;right=0;align=left;spacingLeft=6;overflow=hidden;whiteSpace=wrap;html=1;labelBackgroundColor=none;strokeColor=#457B9D;fontColor=#1D3557;rounded=1;" parent="BOfY78hwmL3YtLzqcc-a-23" vertex="1">
          <mxGeometry x="230" width="100" height="30" as="geometry">
            <mxRectangle width="100" height="30" as="alternateBounds" />
          </mxGeometry>
        </mxCell>
        <mxCell id="BOfY78hwmL3YtLzqcc-a-27" value="Null" style="shape=partialRectangle;connectable=0;fillColor=none;top=0;left=0;bottom=0;right=0;align=left;spacingLeft=6;overflow=hidden;whiteSpace=wrap;html=1;labelBackgroundColor=none;strokeColor=#457B9D;fontColor=#1D3557;rounded=1;" parent="BOfY78hwmL3YtLzqcc-a-23" vertex="1">
          <mxGeometry x="330" width="70" height="30" as="geometry">
            <mxRectangle width="70" height="30" as="alternateBounds" />
          </mxGeometry>
        </mxCell>
        <mxCell id="lglqt9-oc3rIVhA2kLwJ-1" style="edgeStyle=orthogonalEdgeStyle;rounded=1;orthogonalLoop=1;jettySize=auto;html=1;exitX=1;exitY=0.5;exitDx=0;exitDy=0;entryX=0;entryY=0.5;entryDx=0;entryDy=0;labelBackgroundColor=none;strokeColor=#457B9D;fontColor=default;endArrow=ERmandOne;endFill=0;startArrow=ERzeroToMany;startFill=0;" edge="1" parent="1" source="BOfY78hwmL3YtLzqcc-a-8" target="uDVQrx54FTQUmoYok5zQ-80">
          <mxGeometry relative="1" as="geometry">
            <mxPoint x="-290" y="140" as="sourcePoint" />
            <mxPoint x="-20" y="110" as="targetPoint" />
          </mxGeometry>
        </mxCell>
      </root>
    </mxGraphModel>
  </diagram>
</mxfile>
